<svg id="Layer_1" data-name="Layer 1" xmlns="http://www.w3.org/2000/svg" viewBox="0 0 512 512"><defs><style>.cls-1{fill:#fff;}</style></defs><path class="cls-1" d="M126.73,25H25.94A25.94,25.94,0,0,0,0,50.91V461.09A25.94,25.94,0,0,0,25.94,487H126.73a25.94,25.94,0,0,0,25.94-25.94V50.91A25.94,25.94,0,0,0,126.73,25ZM76.33,296a40,40,0,1,1,40-40A40,40,0,0,1,76.33,296Z"/><path class="cls-1" d="M306.4,25H205.6a25.93,25.93,0,0,0-25.93,25.94V461.09A25.93,25.93,0,0,0,205.6,487H306.4a25.93,25.93,0,0,0,25.93-25.94V50.91A25.93,25.93,0,0,0,306.4,25ZM256,296a40,40,0,1,1,40-40A40,40,0,0,1,256,296Z"/><path class="cls-1" d="M486.06,25H385.27a25.94,25.94,0,0,0-25.94,25.94V461.09A25.94,25.94,0,0,0,385.27,487H486.06A25.94,25.94,0,0,0,512,461.09V50.91A25.94,25.94,0,0,0,486.06,25ZM435.67,296a40,40,0,1,1,40-40A40,40,0,0,1,435.67,296Z"/></svg>