<svg id="Layer_1" data-name="Layer 1" xmlns="http://www.w3.org/2000/svg" viewBox="0 0 512 512"><defs><style>.cls-1{fill:#fff;}</style></defs><g id="e"><path class="cls-1" d="M512,363.78c-1.2-66.8-9.09-134.35-22-202.53-10.54-47.36-48.45-89.55-109-92.64-44.73-1.84-53.38,23.64-104.06,23.15q-20.82-.14-41.63,0c-50.69.49-59.36-25-104.07-23.15C70.52,71.7,31.42,113.78,22,161.25,9.08,229.43,1.19,297,0,363.77c-.29,46.51,45.63,77.45,75.93,79.57,58.53,4.42,105-98.79,140.46-98.8q39.62.22,79.22,0c35.44,0,81.9,103.23,140.47,98.81,30.29-2.12,77.39-33.27,75.88-79.57Zm-321-130.34H163.6v27.3a20.86,20.86,0,1,1-41.72,0v-27.3H94.58a20.86,20.86,0,0,1,0-41.72h27.3v-27.3a20.86,20.86,0,1,1,41.72,0v27.3h27.3a20.86,20.86,0,0,1,0,41.72Zm168.57,48.15a29.6,29.6,0,1,1,28.81-30.36,29.58,29.58,0,0,1-28.81,30.36Zm49.25-78.85a29.6,29.6,0,1,1,28.81-30.35A29.6,29.6,0,0,1,408.72,202.74Z"/></g></svg>