<svg id="Layer_1" data-name="Layer 1" xmlns="http://www.w3.org/2000/svg" viewBox="0 0 512 512"><defs><style>.cls-1{fill:#2283f6;}</style></defs><path class="cls-1" d="M256,50A206,206,0,0,1,401.66,401.66,206,206,0,1,1,110.34,110.34,204.63,204.63,0,0,1,256,50m0-50C114.62,0,0,114.62,0,256S114.62,512,256,512,512,397.38,512,256,397.38,0,256,0Z"/><path class="cls-1" d="M256,50c5.13,0,11,2.79,17.53,8.29,6.9,5.84,17.41,17.36,28.26,39.05C322.26,138.28,334,196.11,334,256s-11.74,117.72-32.21,158.66c-10.85,21.69-21.36,33.21-28.26,39C267,459.21,261.13,462,256,462s-11-2.79-17.53-8.29c-6.9-5.84-17.41-17.36-28.26-39C189.74,373.72,178,315.89,178,256s11.74-117.72,32.21-158.66c10.85-21.69,21.36-33.21,28.26-39.05C245,52.79,250.87,50,256,50m0-50C185.31,0,128,114.62,128,256s57.31,256,128,256S384,397.38,384,256,326.69,0,256,0Z"/><path class="cls-1" d="M256,178c59.89,0,117.72,11.74,158.66,32.21,21.69,10.85,33.21,21.36,39,28.26,5.5,6.5,8.29,12.4,8.29,17.53s-2.79,11-8.29,17.53c-5.84,6.9-17.36,17.41-39,28.26C373.72,322.26,315.89,334,256,334S138.28,322.26,97.34,301.79c-21.69-10.85-33.21-21.36-39.05-28.26C52.79,267,50,261.13,50,256s2.79-11,8.29-17.53c5.84-6.9,17.36-17.41,39.05-28.26C138.28,189.74,196.11,178,256,178m0-50C114.62,128,0,185.31,0,256S114.62,384,256,384s256-57.31,256-128S397.38,128,256,128Z"/></svg>