<svg id="Layer_1" data-name="Layer 1" xmlns="http://www.w3.org/2000/svg" viewBox="0 0 458.18 91.39"><defs><style>.cls-1{fill:#56c9ec;}</style></defs><polygon class="cls-1" points="119.95 20.65 114.83 17.25 115.57 16.13 118.63 18.16 119.95 20.65"/><polygon class="cls-1" points="127.5 34.87 111.42 24.19 112.16 23.07 126.18 32.38 127.5 34.87"/><polygon class="cls-1" points="135.06 49.1 108.01 31.13 108.75 30.01 133.74 46.61 135.06 49.1"/><polygon class="cls-1" points="142.61 63.32 118.76 47.48 110.66 42.09 104.6 38.07 105.35 36.95 111.29 40.9 117.43 44.98 141.28 60.82 142.61 63.32"/><polygon class="cls-1" points="150.16 77.55 126.31 61.71 107.03 48.9 101.19 45.02 101.94 43.9 107.67 47.71 124.99 59.21 148.84 75.05 150.16 77.55"/><polygon class="cls-1" points="142.06 79.76 139.63 79.76 133.87 75.93 103.42 55.7 97.79 51.96 98.53 50.84 104.05 54.51 132.54 73.44 142.06 79.76"/><polygon class="cls-1" points="128.21 79.76 125.78 79.76 99.8 62.5 94.38 58.9 95.12 57.78 100.43 61.31 128.21 79.76"/><polygon class="cls-1" points="114.36 79.76 111.93 79.76 96.18 69.3 90.97 65.84 91.71 64.72 96.82 68.11 114.36 79.76"/><polygon class="cls-1" points="110.71 19.82 105.05 23.57 106.37 21.08 109.97 18.7 110.71 19.82"/><polygon class="cls-1" points="108.6 24.8 102.11 29.11 103.43 26.62 107.86 23.68 108.6 24.8"/><polygon class="cls-1" points="101.53 33.05 99.18 34.61 100.51 32.11 100.78 31.93 101.53 33.05"/><polygon class="cls-1" points="100.87 37.05 96.25 40.11 97.58 37.62 100.13 35.93 100.87 37.05"/><polygon class="cls-1" points="101.94 39.91 93.32 45.62 94.64 43.14 101.2 38.79 101.94 39.91"/><polygon class="cls-1" points="100.86 44.19 90.4 51.13 91.72 48.64 100.12 43.07 100.86 44.19"/><polygon class="cls-1" points="97.12 50.24 87.46 56.64 88.79 54.14 96.37 49.12 97.12 50.24"/><polygon class="cls-1" points="94.3 55.67 84.54 62.14 85.86 59.65 93.56 54.55 94.3 55.67"/><polygon class="cls-1" points="92.7 60.3 81.61 67.65 82.94 65.16 91.95 59.18 92.7 60.3"/><polygon class="cls-1" points="141.28 60.82 117.43 44.98 113.28 37.16 111.29 40.9 105.35 36.95 104.6 38.07 110.66 42.09 107.67 47.71 101.94 43.9 101.19 45.02 107.03 48.9 104.05 54.51 98.53 50.84 97.79 51.96 103.42 55.7 100.43 61.31 95.12 57.78 94.38 58.9 99.8 62.5 96.82 68.11 91.71 64.72 90.97 65.84 96.18 69.3 90.62 79.76 75.17 79.76 78.69 73.15 68.72 79.76 66.28 79.76 80.01 70.66 81.61 67.65 92.7 60.3 91.95 59.18 82.94 65.16 84.54 62.14 94.3 55.67 93.56 54.55 85.86 59.65 87.46 56.64 97.12 50.24 96.37 49.12 88.79 54.14 90.4 51.13 100.86 44.19 100.12 43.07 91.72 48.64 93.32 45.62 101.94 39.91 101.2 38.79 94.64 43.14 96.25 40.11 100.87 37.05 100.13 35.93 97.58 37.62 99.18 34.61 101.53 33.05 100.78 31.93 100.51 32.11 102.11 29.11 108.6 24.8 107.86 23.68 103.43 26.62 105.05 23.57 110.71 19.82 109.97 18.7 106.37 21.08 107.96 18.1 115.82 12.88 118.63 18.16 115.57 16.13 114.83 17.25 119.95 20.65 126.18 32.38 112.16 23.07 111.42 24.19 127.5 34.87 133.74 46.61 108.75 30.01 108.01 31.13 135.06 49.1 141.28 60.82"/><polygon class="cls-1" points="106.37 21.08 105.05 23.57 20.21 79.76 17.78 79.76 106.37 21.08"/><polygon class="cls-1" points="109.29 15.6 107.96 18.1 14.94 79.76 12.51 79.76 109.29 15.6"/><polygon class="cls-1" points="103.43 26.62 102.11 29.11 25.7 79.76 23.27 79.76 103.43 26.62"/><polygon class="cls-1" points="97.58 37.62 96.25 40.11 36.45 79.76 34.01 79.76 97.58 37.62"/><polygon class="cls-1" points="100.51 32.11 99.18 34.61 31.07 79.76 28.64 79.76 100.51 32.11"/><polygon class="cls-1" points="82.94 65.16 81.61 67.65 63.34 79.76 60.91 79.76 82.94 65.16"/><polygon class="cls-1" points="91.72 48.64 90.4 51.13 47.21 79.76 44.78 79.76 91.72 48.64"/><polygon class="cls-1" points="85.86 59.65 84.54 62.14 57.96 79.76 55.52 79.76 85.86 59.65"/><polygon class="cls-1" points="94.64 43.14 93.32 45.62 41.82 79.76 39.4 79.76 94.64 43.14"/><polygon class="cls-1" points="88.79 54.14 87.46 56.64 52.58 79.76 50.14 79.76 88.79 54.14"/><path class="cls-1" d="M15.63,25.25H2V11.63H70.13V79.76H2V38.88Zm0,0V66.13H56.5V25.25Z"/><path class="cls-1" d="M113.28,8.09l38.06,71.67H135.89l-22.61-42.6L90.61,79.76H75.17Z"/><path class="cls-1" d="M170.05,34.88V79.76H156.42V2l54.51,54.5V11.63h13.62V89.39Z"/><path class="cls-1" d="M273.11,18.28l-.56-1.06L267.7,8.09,257.56,27.16l-1,1.91-.32.59-.93,1.75-.22.41-1.23,2.31-.2.39-1.58,3-.11.21-2.12,4-.1.2-2.69,5.06L246.46,48,243,54.61l-1.84,3.45-4.89,9.19-6.65,12.51H245l22.67-42.6,22.61,42.6h15.45Z"/><path class="cls-1" d="M310.84,11.63V89.39l13.62-13.62,40.88-40.89V79.76H379V2L324.46,56.5V11.63Z"/><path class="cls-1" d="M442.55,52.51H415.3V38.88h40.88V79.76H388.05V11.63h68.13V25.25h-54.5V66.13h40.87Z"/><polygon class="cls-1" points="269.77 19.28 268.82 21.31 268.58 21.83 264.79 24.63 264.79 24.64 252.34 33.85 252.27 33.91 190.35 79.76 188.08 79.76 251.65 32.69 269.77 19.28"/><polygon class="cls-1" points="273.11 18.28 272.96 18.57 268.82 21.31 268.82 21.32 268.81 21.32 265.15 23.75 262.37 25.58 262.29 25.65 256.23 29.66 251.65 32.69 251.58 32.74 180.65 79.76 178.22 79.76 257.56 27.16 272.55 17.22 273.11 18.28"/><polygon class="cls-1" points="265.43 23.05 265.15 23.75 264.79 24.63 264.38 25.66 260.9 28.53 251.48 36.31 198.84 79.76 196.74 79.76 252.34 33.85 262.29 25.65 265.43 23.05"/><polygon class="cls-1" points="257.5 31.95 257.24 32.85 256.72 34.66 253.84 37.59 250.56 40.94 212.47 79.76 210.58 79.76 250.99 38.58 257.5 31.95"/><polygon class="cls-1" points="261.34 27.26 260.9 28.53 260.42 29.93 257.24 32.85 250.99 38.58 206.12 79.76 204.13 79.76 251.48 36.31 261.34 27.26"/><polygon class="cls-1" points="243.42 61.43 243.37 64.25 234.61 79.76 233.06 79.76 243.42 61.43"/><polygon class="cls-1" points="250.76 42.62 250.74 42.75 250.28 45.4 222.98 79.76 221.27 79.76 249.91 43.69 250.76 42.62"/><polygon class="cls-1" points="245.46 54.82 245.26 57.64 231.19 79.76 229.6 79.76 245.46 54.82"/><polygon class="cls-1" points="253.96 37.09 253.84 37.59 253.32 39.83 250.74 42.75 249.91 43.69 218.05 79.76 216.26 79.76 250.56 40.94 253.96 37.09"/><polygon class="cls-1" points="247.91 48.54 247.57 51.35 227.33 79.76 225.67 79.76 247.91 48.54"/><polygon class="cls-1" points="265.63 19.28 266.58 21.31 266.82 21.83 270.61 24.63 270.61 24.64 283.06 33.85 283.13 33.91 345.05 79.76 347.32 79.76 283.75 32.69 265.63 19.28"/><polygon class="cls-1" points="262.29 18.28 262.44 18.57 266.58 21.31 266.58 21.32 266.59 21.32 270.25 23.75 273.03 25.58 273.11 25.65 279.17 29.66 283.75 32.69 283.82 32.74 354.75 79.76 357.18 79.76 277.84 27.16 262.85 17.22 262.29 18.28"/><polygon class="cls-1" points="269.97 23.05 270.25 23.75 270.61 24.63 271.02 25.66 274.5 28.53 283.92 36.31 336.56 79.76 338.66 79.76 283.06 33.85 273.11 25.65 269.97 23.05"/><polygon class="cls-1" points="277.9 31.95 278.16 32.85 278.68 34.66 281.56 37.59 284.84 40.94 322.93 79.76 324.82 79.76 284.41 38.58 277.9 31.95"/><polygon class="cls-1" points="274.06 27.26 274.5 28.53 274.98 29.93 278.16 32.85 284.41 38.58 329.28 79.76 331.27 79.76 283.92 36.31 274.06 27.26"/><polygon class="cls-1" points="291.98 61.43 292.03 64.25 300.79 79.76 302.34 79.76 291.98 61.43"/><polygon class="cls-1" points="284.64 42.62 284.66 42.75 285.12 45.4 312.42 79.76 314.13 79.76 285.49 43.69 284.64 42.62"/><polygon class="cls-1" points="289.94 54.82 290.14 57.64 304.21 79.76 305.8 79.76 289.94 54.82"/><polygon class="cls-1" points="281.44 37.09 281.56 37.59 282.08 39.83 284.66 42.75 285.49 43.69 317.35 79.76 319.14 79.76 284.84 40.94 281.44 37.09"/><polygon class="cls-1" points="287.49 48.54 287.83 51.35 308.07 79.76 309.73 79.76 287.49 48.54"/></svg>