<?xml version="1.0" encoding="utf-8"?>
<!-- Generator: Adobe Illustrator 24.1.0, SVG Export Plug-In . SVG Version: 6.00 Build 0)  -->
<svg version="1.1" id="Capa_1" xmlns="http://www.w3.org/2000/svg" xmlns:xlink="http://www.w3.org/1999/xlink" x="0px" y="0px"
	 viewBox="0 0 512 512" style="enable-background:new 0 0 512 512;" xml:space="preserve">
<style type="text/css">
	.st0{fill:#3B4C46;}
	.st1{fill:#2ECCA6;}
	.st2{fill:#2CA888;}
	.st3{fill:#F9C861;}
	.st4{fill:#F3A656;}
	.st5{fill:#ED864A;}
	.st6{fill:#E05F07;}
	.st7{fill:#FFFFFF;}
</style>
<circle class="st0" cx="256" cy="256" r="256"/>
<path class="st1" d="M414.4,143.4c-0.6-3.7-3.9-6.3-7.6-6.1c-1.3,0.1-2.5,0.1-3.4,0.1c-32.3,0-58.8-22.4-61.7-51
	c-0.3-3-2.8-5.2-5.8-5.2H256h-79.9c-3,0-5.5,2.2-5.8,5.2c-2.9,28.6-29.4,51-61.7,51c-1,0-2.2-0.1-3.5-0.1c-3.7-0.3-7,2.4-7.6,6.1
	C82.1,244,125.9,344.9,213.4,409l39.1,28.7c2.1,1.5,4.8,1.5,6.9,0l39.1-28.7C386.1,344.9,429.9,244,414.4,143.4z"/>
<path class="st2" d="M414.4,143.4c-0.6-3.7-3.9-6.3-7.6-6.1c-1.3,0.1-2.5,0.1-3.4,0.1c-32.3,0-58.8-22.4-61.7-51
	c-0.3-3-2.8-5.2-5.8-5.2h-30.8c4.1,40,30,75.8,61.4,75.8c2.5,0,6.6-0.4,8.7-0.6c0.7-0.1,1.3,0.4,1.5,1.1
	c17.9,102.5-25.9,205.8-115,271l-10.7,7.9l1.6,1.2c2.1,1.5,4.8,1.5,6.9,0l39.1-28.7C386.1,344.9,429.9,244,414.4,143.4z"/>
<rect x="357.2" y="147.8" class="st2" width="38.4" height="26.7"/>
<path class="st3" d="M229.8,386.6c-39.8-29.2-70.5-67.4-88.7-110.5c-14.5-34.3-20.7-71-18.4-107.5c0.2-2.6,2-4.8,4.6-5.3
	c29.4-5.9,53.6-25.2,64.6-50.8c0.9-2.1,3-3.5,5.3-3.5h117.7c2.3,0,4.4,1.4,5.3,3.5c11,25.6,35.2,45,64.6,50.8
	c2.6,0.5,4.4,2.7,4.6,5.3c2.3,36.5-4,73.2-18.4,107.5c-18.2,43.1-48.8,81.4-88.7,110.5l-22.8,16.7c-2,1.5-4.8,1.5-6.8,0L229.8,386.6
	z"/>
<path class="st4" d="M389.3,168.6c-0.2-2.6-2-4.8-4.6-5.3c-29.4-5.9-53.6-25.2-64.6-50.8c-0.9-2.1-3-3.5-5.3-3.5h-36.4
	c4.7,27.2,40.9,64.4,69.6,70.1c2.6,0.5,4.4,2.7,4.6,5.3c2.3,36.5-4,73.2-18.4,107.5c-17.7,42.1-47.4,79.5-85.8,108.4l4.2,3.1
	c2,1.5,4.8,1.5,6.8,0l22.8-16.7c39.8-29.2,70.5-67.4,88.7-110.5C385.3,241.8,391.6,205.1,389.3,168.6z"/>
<g>
	<path class="st5" d="M442.2,425.7c-31.1-10.1-62.5-17.8-94.8-23.3c2.6-18.1,5.3-36.3,7.9-54.4c35.1,6,69.3,14.4,103.2,25.4
		c1.6,0.5,2.1,2.6,0.8,3.7c-6.2,6-12.4,12-18.4,18.2c-0.5,0.5-0.7,1.3-0.6,2c1.7,8.6,3.3,17.2,4.7,25.9
		C445.3,424.9,443.8,426.2,442.2,425.7z"/>
	<path class="st5" d="M69.8,425.7c31.1-10.1,62.5-17.8,94.8-23.3c-2.6-18.1-5.3-36.3-7.9-54.4c-35.1,6-69.3,14.4-103.2,25.4
		c-1.6,0.5-2.1,2.6-0.8,3.7c6.2,6,12.4,12,18.4,18.2c0.5,0.5,0.7,1.3,0.6,2c-1.7,8.6-3.3,17.2-4.7,25.9
		C66.7,424.9,68.2,426.2,69.8,425.7z"/>
</g>
<path class="st4" d="M405.1,386.2c-99.1-23.8-199.3-23.8-298.4,0c-3.9-17-7.9-34-11.8-51c-0.3-1.3,0.5-2.7,1.9-3
	c105.6-25.1,212.7-25.1,318.3,0c1.3,0.3,2.2,1.7,1.9,3C413,352.2,409.1,369.2,405.1,386.2z"/>
<path class="st5" d="M415.1,332.2c-11.1-2.6-22.3-5-33.4-7.1l-12.4,53.6c12,2.2,23.9,4.7,35.8,7.5c3.9-17,7.9-34,11.8-51
	C417.2,333.9,416.4,332.5,415.1,332.2z"/>
<g>
	<path class="st6" d="M347.4,402.4c19.1-6.2,38.2-11.6,57.7-16.2c-17.9-4.3-35.9-7.8-53.8-10.5C349.8,386.3,349,391.7,347.4,402.4z"
		/>
	<path class="st6" d="M106.9,386.3c19.5,4.6,38.7,9.9,57.7,16.2c-1.6-10.7-2.3-16.2-3.9-26.7C142.7,378.4,124.8,382,106.9,386.3z"/>
</g>
<path class="st7" d="M253,160.3l16.4,50.3c0.3,0.9,1.1,1.5,2,1.5h52.9c2.1,0,2.9,2.6,1.3,3.9l-42.8,31.1c-0.7,0.5-1.1,1.5-0.8,2.4
	l16.4,50.3c0.6,2-1.6,3.6-3.3,2.4l-42.8-31.1c-0.7-0.5-1.8-0.5-2.5,0l-42.8,31.1c-1.7,1.2-3.9-0.4-3.3-2.4l16.4-50.3
	c0.3-0.9,0-1.8-0.8-2.4L176.4,216c-1.7-1.2-0.8-3.9,1.3-3.9h52.9c0.9,0,1.7-0.6,2-1.5l16.4-50.3C249.6,158.4,252.3,158.4,253,160.3z
	"/>
</svg>
