<?xml version="1.0" encoding="utf-8"?>
<!-- Generator: Adobe Illustrator 24.1.0, SVG Export Plug-In . SVG Version: 6.00 Build 0)  -->
<svg version="1.1" id="Layer_1" xmlns="http://www.w3.org/2000/svg" xmlns:xlink="http://www.w3.org/1999/xlink" x="0px" y="0px"
	 viewBox="0 0 25 25" style="enable-background:new 0 0 25 25;" xml:space="preserve">
<style type="text/css">
	.st0{fill:#FFFFFF;}
</style>
<path id="rugby-balls" class="st0" d="M16.4,0.3C17.7,0.1,19,0,20.4,0c0.6,0,1.3,0,1.9,0.1c1.4,0.1,2.6,1.2,2.7,2.7
	c0.1,1.9,0.1,3.9-0.2,5.8L16.4,0.3z M0.3,16.4c-0.3,1.9-0.4,3.9-0.2,5.8c0.1,1.4,1.2,2.6,2.7,2.7C3.4,25,4,25,4.6,25l0,0
	c1.3,0,2.6-0.1,4-0.3L0.3,16.4z M24.4,10.3c-0.7,3.5-2.4,6.7-4.8,9.3l0,0c-2.6,2.4-5.8,4.1-9.3,4.8l-9.6-9.7C1.3,11.3,3,8,5.4,5.4
	l0,0C8,3,11.2,1.3,14.7,0.6L24.4,10.3z M17.7,10.3l-1-1l0.8-0.8c0.3-0.3,0.3-0.7,0.1-1c-0.3-0.3-0.7-0.3-1-0.1c0,0-0.1,0-0.1,0.1
	l-0.8,0.8l-1-1C14.4,7,14,7,13.7,7.2c-0.3,0.3-0.3,0.7-0.1,1c0,0,0,0.1,0.1,0.1l1,1l-1.1,1.1l-1-1c-0.3-0.3-0.7-0.2-1,0.1
	c-0.2,0.3-0.2,0.6,0,0.9l1,1l-1.1,1.1l-1-1c-0.3-0.3-0.7-0.3-1-0.1s-0.3,0.7-0.1,1c0,0,0,0.1,0.1,0.1l1,1l-1.1,1.1l-1-1
	c-0.3-0.3-0.7-0.2-1,0.1c-0.2,0.3-0.2,0.6,0,0.9l1,1l-0.8,0.8c-0.3,0.3-0.2,0.7,0.1,1c0.3,0.2,0.6,0.2,0.9,0l0.8-0.8l1,1
	c0.3,0.3,0.7,0.2,1-0.1c0.2-0.3,0.2-0.6,0-0.9l-1-1l1.1-1.1l1,1c0.3,0.3,0.7,0.2,1-0.1c0.2-0.3,0.2-0.6,0-0.9l-1-1l1.1-1.1l1,1
	c0.3,0.3,0.7,0.2,1-0.1c0.2-0.3,0.2-0.6,0-0.9l-1-1l1.1-1.1l1,1c0.2,0.3,0.7,0.3,1,0.1S18,10.7,17.7,10.3
	C17.7,10.4,17.7,10.3,17.7,10.3L17.7,10.3z"/>
</svg>
