<?xml version="1.0" encoding="utf-8"?>
<!-- Generator: Adobe Illustrator 24.1.0, SVG Export Plug-In . SVG Version: 6.00 Build 0)  -->
<svg version="1.1" id="Layer_1" xmlns="http://www.w3.org/2000/svg" xmlns:xlink="http://www.w3.org/1999/xlink" x="0px" y="0px"
	 viewBox="0 0 221.5 216.9" style="enable-background:new 0 0 221.5 216.9;" xml:space="preserve">
<style type="text/css">
	.st0{fill:#707070;}
</style>
<g id="astralians_ruels" transform="translate(0 0)">
	<path id="Path_68" class="st0" d="M0,116.7c2.9-5.8,5.7-11.4,8.5-17c4.5-9,8.9-18,13.5-26.9c0.5-1,1.3-1.8,2.2-2.4
		c14.7-8.2,30.2-14,47.2-15.4c1.3-0.1,2.7-0.2,4-0.2c29.7,0,59.3,0,89,0h1.8c0.3,4.4,0,8.8-0.9,13.1c-2.4,10.2-9,15.8-19.3,16.9
		c-13,1.4-26,2.9-39,4.4c-0.5,0.1-1.3,0.6-1.4,1c-1.2,6.9-2.3,13.7-3.5,20.8c5.5,1.4,10.9,2.8,16.3,4.1c6.1,1.5,12.1,3,18.2,4.5
		c0.9,0.2,1.8,0.6,2.6,1c15.9,7.9,31.7,15.8,47.6,23.8c0.5,0.3,1,0.6,1.6,0.9l-4.4,8.8c-0.7-0.3-1.4-0.6-2-0.9
		c-14.3-7.1-28.6-14.1-42.7-21.4c-5.5-2.8-11.4-3.9-17.2-5.4c-10-2.6-20.1-5.1-30.1-7.6c-0.3-0.1-0.6-0.2-1.2-0.3
		c0.6-3.8,1.2-7.6,1.9-11.4c1.4-8.3,2.8-16.6,4.1-25c0.2-1.5,0.9-1.9,2.3-2c15.9-1.7,31.7-3.4,47.6-5.2c5-0.7,8.8-4.9,9-9.9h-2.3
		c-23.9,0-47.9,0.2-71.8-0.1c-14.1-0.1-28.1,2.9-41,8.7c-9.8,4.3-9.8,4.3-14.6,14c-3.7,7.5-7.5,15-11.2,22.5c-0.4,0.7-0.7,1.4-1,2.1
		c5,1.4,10.6-0.9,14.3-5.8c5-6.6,9.9-13.2,14.9-19.8c0.6-0.8,1.4-1.3,2.3-1.5c6.7-0.8,13.5-1.5,20.2-2.1c0.5,0,0.9,0,1.7,0
		c-0.3,3-0.6,6-0.9,9c-1,9.2-2.1,18.5-3,27.7c-0.7,7.3,2.8,11.4,10.1,12.3c16.5,2.1,32.9,4.4,49.4,6.6c1.5,0.2,3,0.4,4.5,0.6
		c3.4,0.3,6.8,1.2,9.9,2.7c13.1,6,26.3,11.7,39.5,17.6c0.5,0.2,1,0.4,1.7,0.8l-4,9.1c-3.7-1.6-7.3-3.2-10.8-4.8
		c-9.9-4.4-19.9-8.8-29.8-13.3c-3.5-1.6-7.2-2-11-2.5c-6.5-0.9-12.9-1.8-19.4-2.6c-0.5-0.1-1.1-0.1-1.8-0.1v2.4
		c0,10.2,0,20.5,0,30.7c0,1.2-0.3,2.5-0.9,3.6c-6.1,10.8-12.3,21.6-18.5,32.4c-0.4,0.6-0.7,1.3-1.2,2.1l-8.6-4.9
		c0.4-0.8,0.8-1.5,1.1-2.1c5.7-10,11.5-20.1,17.2-30.1c0.5-0.8,0.8-1.7,0.9-2.6c0.1-10.6,0-21.1,0-31.7c0-0.3-0.1-0.6-0.1-1.1
		l-14.3-1.9c0.1,0.8,0,1.5,0.1,2.1c1.4,9.6,2.8,19.2,4.2,28.8c0.2,1.3,0,2.6-0.6,3.8c-6.2,12.6-12.5,25.2-18.8,37.8
		c-0.3,0.5-0.6,1-1,1.8l-8.9-4.4c2.2-4.5,4.4-8.8,6.6-13.1c3.9-7.8,7.9-15.7,11.7-23.6c0.6-1.2,0.8-2.5,0.7-3.8
		c-1.3-9.9-2.8-19.9-4.3-29.8c-0.2-0.7-0.6-1.3-1.3-1.7c-9.4-4.6-13.4-12.2-12.1-22.6c1-7.7,1.7-15.5,2.5-23.2
		c0-0.2-0.1-0.4-0.2-0.6c-2,0.2-4,0.3-6,0.6c-0.5,0.1-1,0.8-1.4,1.3C44.1,101.2,40,106.6,36,112c-8.1,10.7-20.5,13.3-32.2,6.7
		C2.5,118.1,1.3,117.4,0,116.7z"/>
	<path id="Path_69" class="st0" d="M116.2,24.9c0,13.8-11.1,24.9-24.9,24.9c0,0-0.1,0-0.1,0c-13.8-0.1-24.9-11.3-24.9-25.1
		C66.5,11.1,77.6,0,91.3,0c13.7-0.1,24.9,10.9,24.9,24.6C116.2,24.7,116.2,24.8,116.2,24.9z M106.3,24.9c0.1-8.2-6.6-14.9-14.7-14.9
		c-0.1,0-0.1,0-0.2,0c-8.2,0-14.9,6.6-15,14.9c0,0,0,0,0,0c0,8.3,6.7,14.9,14.9,15C99.6,39.9,106.3,33.2,106.3,24.9
		C106.3,24.9,106.3,24.9,106.3,24.9L106.3,24.9z"/>
	<path id="Path_70" class="st0" d="M221,94.1c0,16.6-12.5,32-28.7,35.1c-2.2,0.4-4.4,0.4-6.5,0.3c-4-0.1-7.5-2.6-9-6.3
		c-2.7-5.9-2.6-12-1.2-18.2c3-13.8,14.6-25.1,28.1-27.5c2.2-0.4,4.4-0.4,6.5-0.2c4,0.2,7.5,2.8,8.7,6.6c1,3.3,1.9,6.7,2.6,10.1
		L221,94.1z M184.6,112.4c0.1,1.3,0.2,2.5,0.4,3.8c0.6,3.4,1.1,3.7,4.5,3.3c12.3-1.4,23.2-15.6,21.4-27.9c-0.7-4.7-1.6-5.3-6.3-4.3
		C193.5,89.9,184.7,100.8,184.6,112.4L184.6,112.4z"/>
</g>
</svg>
