<?xml version="1.0" encoding="utf-8"?>
<!-- Generator: Adobe Illustrator 24.1.0, SVG Export Plug-In . SVG Version: 6.00 Build 0)  -->
<svg version="1.1" id="Group_244" xmlns="http://www.w3.org/2000/svg" xmlns:xlink="http://www.w3.org/1999/xlink" x="0px" y="0px"
	 viewBox="0 0 25 25" style="enable-background:new 0 0 25 25;" xml:space="preserve">
<style type="text/css">
	.st0{fill:#707070;}
</style>
<g id="Group_160">
	<path id="Path_138" class="st0" d="M12.5,0C5.6,0,0,5.6,0,12.5S5.6,25,12.5,25S25,19.4,25,12.5S19.4,0,12.5,0z M13.3,4.1l3.2-1.7
		C18.3,3,19.8,4.2,21,5.7l-0.8,3.5l-2.5,1.2l-4.5-3.3L13.3,4.1L13.3,4.1z M8.5,2.3L11.7,4v3.1l-4.5,3.3L4.8,9.2L4,5.6
		C5.2,4.2,6.8,3,8.5,2.3z M3.5,18.7c-1-1.5-1.7-3.3-1.9-5.1l2.6-2.9l2.4,1.2L8.5,17L7,18.9L3.5,18.7z M15.3,23.1
		c-2,0.5-4.1,0.5-6.1-0.2l-1-3.1L9.7,18h5.5l1.5,1.8L15.3,23.1z M18,18.8L16.5,17l1.8-5.2l2.4-1.2l2.6,2.9c-0.2,1.6-0.7,3.1-1.5,4.5
		L18,18.8z"/>
</g>
</svg>
