<?xml version="1.0" encoding="utf-8"?>
<!-- Generator: Adobe Illustrator 24.1.0, SVG Export Plug-In . SVG Version: 6.00 Build 0)  -->
<svg version="1.1" id="baseball" xmlns="http://www.w3.org/2000/svg" xmlns:xlink="http://www.w3.org/1999/xlink" x="0px" y="0px"
	 viewBox="0 0 258.3 258" style="enable-background:new 0 0 258.3 258;" xml:space="preserve">
<style type="text/css">
	.st0{fill:#707070;}
</style>
<path id="Path_38" class="st0" d="M47.2,133.4c3.1,0.5,7.4,0.8,11.2,2.1c3.2,1,6.1,3.2,9.1,4.9l2.6-14.4c1.8-0.3,6.2-1.8,10.4-1.5
	c3.8,0.3,7.4,2.5,11.1,3.9c-0.4-4.3-0.8-8.7-1.2-14.2l6.5-5.5c1-0.3,1.6-0.6,1.9-0.5c17.7,10.7,16.3,3.6,9.7-9.9
	c-0.7-1.5,3.7-5.6,6.2-9.2c2.1,1.1,3.8,2.5,5.6,2.8c2.6,0.3,5.4-0.2,8.1-0.4c-0.2-2.5-0.5-4.9-0.9-7.3c-1.1-4.9-2.5-9.8-3.6-13.7
	c8-1.5,12.2-2.3,16.5-3.1c-1.9-3-4.4-5.8-5.5-9c-1.3-3.6-1.3-7.7-1.8-10.6l14.5-4.7c-2.6-3-6-5.6-7.6-9.1c-1.8-3.9-2-8.5-2.7-11.5
	l14.3-6.7c-3.6-2.5-7.4-4.7-10.6-7.5c-1.6-1.4-2.2-4.1-3.3-6.5c55.5-8.3,135.7,74.7,117.9,120.5c-3.7-4.3-7.5-8.7-11.3-13.1
	l-6.1,14.6c-3.3-0.8-7.9-1.2-11.7-3.1c-3.4-1.7-6-5-9-7.6c-1.3,4.2-2.6,8.4-4.4,14.5c-2.7-0.2-6.8,0.1-10.4-1.1
	c-3.6-1.2-6.6-3.9-9.9-5.9l-1.7,14.8c-2.7,0.5-6.8,2.3-10.7,1.9c-4.1-0.4-7.9-2.9-11.9-4.4l1.8,14.2l-6.6,5.4
	c-14.7,3.9-14.7,3.9-10.8,10.1l-6.3,8l-14.2-1.8c1.2,3.7,3.1,7.3,3.5,11c0.5,4.2-0.3,8.5-0.5,11.5l-15.3,1.8c2,3.3,4.8,6.4,5.9,10
	c1.2,3.7,0.8,7.8,1,10.2c-6.2,2-10.3,3.4-14.4,4.8c2.7,3,5.9,5.6,7.8,9c1.9,3.5,2.3,7.8,3.3,11.4l-14.9,6.4
	c4.4,3.8,8.7,7.5,13.1,11.3C73.5,271.2-3,197.7,1.1,135c3.9,5.4,5.7,8.2,7.8,10.7c1.8,2.2,4,4.2,6,6.2c1.6-2.3,3.2-4.6,4.8-6.8
	c1.8-2.5,3.2-6.4,5.4-6.9c2.7-0.7,6.3,1.1,9.1,2.6c3.4,1.8,6.3,4.5,9.4,6.8C44.6,143.6,45.6,139.6,47.2,133.4z"/>
<path id="Path_39" class="st0" d="M126,2.8l-11.2,8.3c2.9,2.2,6.2,3.9,8.5,6.6c1.7,2,2.1,5.1,2.8,6.9l-13.1,5.5
	c2.4,2.7,5.3,5.1,6.9,8.2c1.5,2.8,1.4,6.4,2,9.4L108.1,49c1.7,3.4,4,6.7,5,10.3c0.9,3.1,0.5,6.6,0.7,9.9L100,67.6
	c1.1,3.6,2.8,7.2,3,10.9c0.2,3.3-1.3,6.7-1.9,9.2l-16.7-2.1c1.1,4.3,2.2,8.7,3.9,15.1c-2.9,0.7-6.5,2.4-10,2.2
	c-3.4-0.2-6.6-2.4-9.9-3.7l-0.7,15c-2.8-0.9-6.5-2.1-10.2-3.4c-2.6-0.9-5.2-2-7.7-3c-0.6,2.7-1.2,5.3-1.9,8
	c-0.6,2.1-1.3,5.7-2.3,5.8c-2.6,0.2-5.3-0.4-7.6-1.8c-3.1-1.8-5.6-4.4-8.4-6.7c-1.5,3.7-3,7.4-5,12.5c-1.1-0.2-4.6,0.2-6.5-1.3
	c-3-2.5-5-6.2-7.4-9.4l-7.5,10.5c-9.2-9.8,1.8-48.5,21.8-74.9C50.4,16.9,104.1-8.7,126,2.8z"/>
<path id="Path_40" class="st0" d="M146.6,193.1l14.7-0.9c-0.9-3-2.4-6-2.7-9.1c-0.3-3.6,0.3-7.2,0.5-10.3c7,1.2,11.7,2.1,16.4,2.9
	c-0.7-4.3-1.3-8.6-2.3-14.6l4.8-4.2l13.9,4.7l1.3-14.2c1.5,0.1,5.1-0.2,8.3,0.7c3.3,0.9,6.3,3.1,9.4,4.7c0.7-3.9,1.4-7.8,2.7-14.7
	c3.2,1.6,6.5,3.2,9.8,5c2.5,1.4,4.8,3,7.1,4.6c1.2-2.5,2.2-5.1,3.5-7.5c1-1.9,2.2-4.3,3.9-5c1.3-0.5,3.8,1.2,5.2,2.6
	c2.5,2.4,4.7,5.3,7,8c2.1-3.3,4.2-6.6,6.3-9.7c7.6,49.5-50.8,124.7-121.4,121c7.6-4.3,21.4-8.1,1.9-14.4c-1.3-0.4-1.5-4.4-2.3-6.7
	c7.7-3.2,24.8-3,5.1-14.4c-1.4-0.8-0.2-6.1-0.2-8.2l13.1-2.2c-1.6-3.1-3.5-6.1-4.6-9.4C147,198.7,146.9,195.3,146.6,193.1z"/>
</svg>
