<?xml version="1.0" encoding="utf-8"?>
<!-- Generator: Adobe Illustrator 24.1.0, SVG Export Plug-In . SVG Version: 6.00 Build 0)  -->
<svg version="1.1" id="Group_246" xmlns="http://www.w3.org/2000/svg" xmlns:xlink="http://www.w3.org/1999/xlink" x="0px" y="0px"
	 viewBox="0 0 25 25" style="enable-background:new 0 0 25 25;" xml:space="preserve">
<style type="text/css">
	.st0{fill:#707070;}
</style>
<g id="Group_145" transform="translate(19.211 4.803)">
	<g id="Group_144">
		<path id="Path_127" class="st0" d="M3.1,0C1.3,1.9,0.2,4.3,0,6.9h5.8C5.6,4.4,4.7,2,3.1,0z"/>
	</g>
</g>
<g id="Group_147" transform="translate(13.299 0)">
	<g id="Group_146">
		<path id="Path_128" class="st0" d="M0,0v11.7h4.5c0.2-3,1.5-5.9,3.6-8C5.9,1.5,3,0.2,0,0z"/>
	</g>
</g>
<g id="Group_149" transform="translate(19.211 13.262)">
	<g id="Group_148">
		<path id="Path_129" class="st0" d="M0,0c0.2,2.6,1.3,5.1,3.1,7c1.6-2,2.5-4.4,2.7-7H0z"/>
	</g>
</g>
<g id="Group_151" transform="translate(3.641 0)">
	<g id="Group_150">
		<path id="Path_130" class="st0" d="M0,3.7c2.1,2.1,3.4,5,3.6,8h4.5V0C5,0.2,2.2,1.5,0,3.7z"/>
	</g>
</g>
<g id="Group_153" transform="translate(13.299 13.299)">
	<g id="Group_152">
		<path id="Path_131" class="st0" d="M4.5,0H0v11.7c3-0.2,5.9-1.5,8.1-3.6C5.9,5.9,4.6,3,4.5,0z"/>
	</g>
</g>
<g id="Group_155" transform="translate(3.641 13.299)">
	<g id="Group_154">
		<path id="Path_132" class="st0" d="M3.6,0C3.4,3,2.1,5.9,0,8.1c2.2,2.1,5,3.4,8.1,3.6V0H3.6z"/>
	</g>
</g>
<g id="Group_157" transform="translate(0 13.262)">
	<g id="Group_156">
		<path id="Path_133" class="st0" d="M0,0c0.2,2.5,1.1,5,2.7,7c1.8-1.9,2.9-4.4,3.1-7H0z"/>
	</g>
</g>
<g id="Group_159" transform="translate(0 4.803)">
	<g id="Group_158">
		<path id="Path_134" class="st0" d="M2.7,0C1.1,2,0.2,4.4,0,6.9h5.8C5.6,4.3,4.5,1.9,2.7,0z"/>
	</g>
</g>
</svg>
