<?xml version="1.0" encoding="utf-8"?>
<!-- Generator: Adobe Illustrator 24.1.0, SVG Export Plug-In . SVG Version: 6.00 Build 0)  -->
<svg version="1.1" id="Layer_1" xmlns="http://www.w3.org/2000/svg" xmlns:xlink="http://www.w3.org/1999/xlink" x="0px" y="0px"
	 viewBox="0 0 21.9 25" style="enable-background:new 0 0 21.9 25;" xml:space="preserve">
<style type="text/css">
	.st0{fill:#707070;}
</style>
<g id="boxing" transform="translate(-127.354 -72.74)">
	<path id="Path_582" class="st0" d="M143.8,73c-2.1-0.4-4.3-0.4-6.4,0l0,0c-2.6,0.5-4.7,2.6-5.1,5.2c-0.5,2.6-0.3,5.2,0.4,7.8h-1.7
		c-0.5-2.1-0.7-4.2-0.5-6.3c-2.1,0.8-3.3,3-3,5.2c0.1,0.7,0.3,1.4,0.4,2.1c0.4,1.6,1.4,3,2.7,4c0.7,0.4,1.5,0.7,2.2,0.8h13.6
		c1.3-1,2.2-2.4,2.5-4c0.5-3.2,0.5-6.4,0-9.6C148.4,75.5,146.4,73.5,143.8,73z"/>
	<path id="Path_583" class="st0" d="M133.7,93.5h8.7v4.3h-8.7V93.5z"/>
	<path id="Path_584" class="st0" d="M144,93.5h2.1v4.3H144V93.5z"/>
</g>
</svg>
