<?xml version="1.0" encoding="utf-8"?>
<!-- Generator: Adobe Illustrator 24.1.0, SVG Export Plug-In . SVG Version: 6.00 Build 0)  -->
<svg version="1.1" id="_023---Cricket" xmlns="http://www.w3.org/2000/svg" xmlns:xlink="http://www.w3.org/1999/xlink" x="0px"
	 y="0px" viewBox="0 0 25 24.6" style="enable-background:new 0 0 25 24.6;" xml:space="preserve">
<style type="text/css">
	.st0{fill:#707070;}
</style>
<path id="Shape" class="st0" d="M24.9,3.8l-3.3,3.3l-1.5-1.5l3.3-3.3c0.2-0.2,0.4-0.2,0.6,0c0,0,0,0,0,0l0.9,0.9
	C25,3.3,25,3.6,24.9,3.8C24.9,3.8,24.9,3.8,24.9,3.8L24.9,3.8z"/>
<path id="Shape-2" class="st0" d="M12.3,0v0.8h-0.4c-0.7,0-1.3,0.6-1.3,1.3H9.7c0-0.7-0.6-1.3-1.3-1.3H8.1V0.4C8.1,0.2,8.2,0,8.5,0
	H12.3z"/>
<path id="Shape-3" class="st0" d="M6.4,6.6C6.3,6.4,6.2,6.2,6,6l-4.7,4.7c0.2,0.1,0.4,0.3,0.6,0.4L6.4,6.6z"/>
<path id="Shape-4" class="st0" d="M4.9,5L0.4,9.5c0.1,0.2,0.2,0.4,0.4,0.6l4.7-4.7C5.3,5.3,5.1,5.1,4.9,5L4.9,5z"/>
<path id="Shape-5" class="st0" d="M4,4.7c-0.2,0-0.4-0.1-0.6-0.1C1.5,4.7,0,6.2,0,8.1c0,0.2,0,0.4,0.1,0.6L4,4.7z"/>
<path id="Shape-6" class="st0" d="M2.8,11.4c0.2,0,0.4,0.1,0.6,0.1c1.9,0,3.3-1.5,3.4-3.4c0-0.2,0-0.4-0.1-0.6L2.8,11.4z"/>
<path id="Shape-7" class="st0" d="M16.5,0.4v0.4h-0.4c-0.7,0-1.3,0.6-1.3,1.3H14c0-0.7-0.6-1.3-1.3-1.3h-0.4V0h3.8
	C16.3,0,16.5,0.2,16.5,0.4z"/>
<path id="Shape-8" class="st0" d="M17.4,2.1v3.2L15.7,7V2.1c0-0.2,0.2-0.4,0.4-0.4h0.8C17.2,1.7,17.4,1.9,17.4,2.1z"/>
<path id="Shape-9" class="st0" d="M17.4,14.3v9.9c0,0.2-0.2,0.4-0.4,0.4h-0.8c-0.2,0-0.4-0.2-0.4-0.4V16L17.4,14.3z"/>
<path id="Shape-10" class="st0" d="M13.1,2.1v7.4l-1.7,1.7V2.1c0-0.2,0.2-0.4,0.4-0.4h0.8C12.9,1.7,13.1,1.9,13.1,2.1z"/>
<path id="Shape-11" class="st0" d="M13.1,18.5v5.6c0,0.2-0.2,0.4-0.4,0.4h-0.8c-0.2,0-0.4-0.2-0.4-0.4v-3.9L13.1,18.5z"/>
<path id="Shape-12" class="st0" d="M8.9,2.1v11.6l-1.7,1.7V2.1c0-0.2,0.2-0.4,0.4-0.4h0.8C8.7,1.7,8.9,1.9,8.9,2.1z"/>
<path id="Shape-13" class="st0" d="M8.9,22.7v1.4c0,0.2-0.2,0.4-0.4,0.4H7.6c-0.1,0-0.3-0.1-0.4-0.2L8.9,22.7z"/>
<path id="Shape-14" class="st0" d="M21.4,9.1L6,24.4c-0.2,0.2-0.4,0.2-0.6,0c0,0,0,0,0,0l-2.7-2.7c-0.2-0.2-0.2-0.4,0-0.6
	c0,0,0,0,0,0L18.1,5.8c0.1-0.1,0.3-0.2,0.5-0.1l0.9,0.5L21,7.7l0.5,0.9C21.5,8.8,21.5,9,21.4,9.1z"/>
<path id="Shape-15" class="st0" d="M21.4,9.1L6,24.4c-0.2,0.2-0.4,0.2-0.6,0c0,0,0,0,0,0l-2.7-2.7c-0.2-0.2-0.2-0.4,0-0.6
	c0,0,0,0,0,0L18.1,5.8c0.1-0.1,0.3-0.2,0.5-0.1l0.9,0.5L21,7.7l0.5,0.9C21.5,8.8,21.5,9,21.4,9.1z"/>
</svg>
