<?xml version="1.0" encoding="utf-8"?>
<!-- Generator: Adobe Illustrator 24.1.0, SVG Export Plug-In . SVG Version: 6.00 Build 0)  -->
<svg version="1.1" id="Layer_1" xmlns="http://www.w3.org/2000/svg" xmlns:xlink="http://www.w3.org/1999/xlink" x="0px" y="0px"
	 viewBox="0 0 221.5 222.1" style="enable-background:new 0 0 221.5 222.1;" xml:space="preserve">
<style type="text/css">
	.st0{fill:#707070;}
</style>
<g id="darts" transform="translate(0)">
	<path id="Path_41" class="st0" d="M154.9,29.5c-5.2,5-9.8,9.8-14.8,14c-1.2,1-4.2,0.9-5.9,0.2c-32-12.6-67.5-4.6-90.5,20.5
		c-23.3,25.5-27.8,63-11.3,93.3c16.5,30.2,50.8,47,84,41.1c35.1-6.2,61.6-32.9,66.9-67.2c2.5-14.7,0.6-29.9-5.3-43.6
		c-1.3-3-0.8-4.7,1.4-6.9c4.4-4.4,8.5-9.1,12.9-13.8c21.9,34.8,21.3,92.9-21.5,130c-40.3,34.8-101.1,33.1-139.2-3.9
		C-7.1,155.6-10.8,95,23.3,53.4C60,8.6,119.1,7.3,154.9,29.5z"/>
	<path id="Path_42" class="st0" d="M123,61.4c-5.5,5.2-10.6,10.4-16.1,15.3c-1.2,1.1-3.6,1.2-5.5,1.3c-20.8,1.2-37.7,17.9-38.7,38.3
		c-1,21.6,13.5,39.4,34.8,42.8c20.1,3.2,39.9-10,45.2-30.2c0.1-0.5,0.3-1,0.4-1.6c0.7-4,0.1-8.9,2.2-11.8
		c4.4-5.9,10.2-10.8,15.6-16.3c10.2,24.3-0.9,55.8-24.4,71c-25,16.2-58.1,12-78.3-9.9c-20-21.8-21.7-54.8-3.9-78.5
		C70.4,60.8,102.4,51,123,61.4z"/>
	<path id="Path_43" class="st0" d="M196.5,0c1,7.1,2,12.7,2.5,18.4c0.3,3.3,1.5,4.6,4.8,4.9c5.7,0.5,11.3,1.4,17.7,2.3
		c-1.1,1.4-1.8,2.5-2.7,3.4c-7.8,7.9-15.7,15.6-23.4,23.6c-2.3,2.3-4.5,3.3-7.5,2.3c-3.5-1.1-5.9,0.1-8.5,2.6
		C162,75,144.5,92.4,127.2,110c-1.7,1.9-2.6,4.3-2.6,6.8c0.5,12.7-8.5,22.9-20.8,23.1c-11.8,0.1-21.4-9.4-21.4-21.2
		c0-0.3,0-0.6,0-0.8c0.5-12.4,11.2-21.3,24.1-20.2c1.8,0.1,3.6-0.6,5-1.8c18.2-18,36.2-36.1,54.2-54.3c1.4-1.7,2-3.9,1.7-6
		c-0.7-4.2,0.4-7,3.4-9.9C179.3,17.6,187.4,9.1,196.5,0z"/>
</g>
</svg>
