<?xml version="1.0" encoding="utf-8"?>
<!-- Generator: Adobe Illustrator 24.1.0, SVG Export Plug-In . SVG Version: 6.00 Build 0)  -->
<svg version="1.1" id="Layer_1" xmlns="http://www.w3.org/2000/svg" xmlns:xlink="http://www.w3.org/1999/xlink" x="0px" y="0px"
	 viewBox="0 0 25 15.5" style="enable-background:new 0 0 25 15.5;" xml:space="preserve">
<style type="text/css">
	.st0{fill:#707070;}
</style>
<path id="video-game-controller" class="st0" d="M22.8,3.9c-2-4.1-4.2-4.4-6.2-3.4c-0.6,0.3-1.1,0.7-1.5,1.2H9.8
	C9.4,1.1,8.9,0.7,8.3,0.5c-2-1-4.1-0.7-6.2,3.4s-3.1,10.5-1.1,11.4c1.4,0.7,3.9-1.4,6-4.1H18c2.1,2.7,4.6,4.8,6,4.1
	C25.9,14.4,24.8,8,22.8,3.9z M9.3,6.4c0,0.2-0.1,0.3-0.3,0.3c0,0,0,0,0,0H7.6v1.5c0,0.2-0.1,0.3-0.3,0.3c0,0,0,0,0,0h-1
	C6,8.5,5.9,8.4,5.9,8.3c0,0,0,0,0,0V6.7H4.4c-0.2,0-0.3-0.1-0.3-0.3c0,0,0,0,0,0v-1c0-0.2,0.1-0.3,0.3-0.3c0,0,0,0,0,0h1.5V3.6
	c0-0.2,0.1-0.3,0.3-0.3c0,0,0,0,0,0h1c0.2,0,0.3,0.1,0.3,0.3c0,0,0,0,0,0v1.5H9c0.2,0,0.3,0.1,0.3,0.3c0,0,0,0,0,0L9.3,6.4L9.3,6.4z
	 M18.8,3.9c0,0.5-0.4,0.9-0.9,0.9c-0.5,0-0.9-0.4-0.9-0.9c0-0.5,0.4-0.9,0.9-0.9C18.4,2.9,18.8,3.4,18.8,3.9L18.8,3.9z M16,6.8
	c-0.5,0-0.9-0.4-0.9-0.9c0-0.5,0.4-0.9,0.9-0.9c0.5,0,0.9,0.4,0.9,0.9c0,0,0,0,0,0C16.9,6.3,16.5,6.8,16,6.8C16,6.8,16,6.8,16,6.8z
	 M19.8,6.8c-0.5,0-0.9-0.4-0.9-0.9c0-0.5,0.4-0.9,0.9-0.9c0.5,0,0.9,0.4,0.9,0.9c0,0,0,0,0,0C20.8,6.3,20.3,6.8,19.8,6.8
	C19.8,6.8,19.8,6.8,19.8,6.8z M17.9,8.7c-0.5,0-0.9-0.4-0.9-0.9c0-0.5,0.4-0.9,0.9-0.9c0.5,0,0.9,0.4,0.9,0.9c0,0,0,0,0,0
	C18.8,8.3,18.4,8.7,17.9,8.7C17.9,8.7,17.9,8.7,17.9,8.7z"/>
</svg>
