<?xml version="1.0" encoding="utf-8"?>
<!-- Generator: Adobe Illustrator 24.1.0, SVG Export Plug-In . SVG Version: 6.00 Build 0)  -->
<svg version="1.1" id="ice_hockey_" xmlns="http://www.w3.org/2000/svg" xmlns:xlink="http://www.w3.org/1999/xlink" x="0px"
	 y="0px" viewBox="0 0 221.5 230.4" style="enable-background:new 0 0 221.5 230.4;" xml:space="preserve">
<style type="text/css">
	.st0{fill:#707070;}
</style>
<path id="Path_1" class="st0" d="M117.1,230.4c-3.8-1-7.4-2.4-9.6-5.9c-0.7-1.1-1.3-2.2-1.7-3.4c-0.8-2.1,0.2-4.4,2.3-5.2
	c1.9-0.9,4.2-0.2,5.3,1.6c2.9,4.3,3.8,4.7,9.6,4.1c-0.9-0.8-1.6-1.5-2.4-2.2c-16.7-15.7-33.5-31.4-50.2-47.1c-5.3-5-6.3-11.4-2.8-17
	c0.9-1.4,2-2.6,3.3-3.7c11.4-10.3,22.8-20.6,34.2-31c1-0.9,1.2-1.3,0.1-2.3c-3-2.7-5.8-5.4-8.6-8.2c-1.1-1.1-1.7-1.1-2.8,0
	c-9,9.4-18,18.7-27,28c-2.2,2.3-4.5,4.2-7.8,4.3c-1.4,0.1-1.6,1.2-2,2.1c-8.6,17.8-17.2,35.5-25.7,53.3c-1.3,2.4-2.3,5-3.2,7.6
	c-1,3.5-4,5-7.4,5.1c-5.2,0.2-10.5,0.2-15.7,0c-4.5-0.1-6.2-3.6-3.7-7.3c2.5-3.8,6.7-6.2,11.3-6.5c2.8-0.2,5.5-0.2,8.3,0
	c0.9,0.2,1.8-0.3,2.1-1.2c8.6-18,17.3-36,26-53.9c0.5-1.1,0.3-1.5-0.6-2.1c-3-1.9-4.9-5.3-4.9-8.9c-0.7-16.8-1.2-33.6-1.9-50.4
	c-0.2-3.7,1.2-7.3,3.9-9.9C56.2,58.7,67.1,47.2,78,35.5c5.2-5.5,11.6-5.6,16.9-0.3c13.9,13.9,27.9,27.7,41.7,41.7
	c5.4,5.4,8.5,12.8,8.4,20.5c0.1,12.5,0,24.9,0,37.4c0,1,0.1,1.9,0.3,2.9c1.9,5.9,3.7,11.8,5.6,17.8c0.3,0.9,0.9,1.7,1.6,2.3
	c16.9,14.7,33.7,29.5,50.8,44.1c6.4,5.5,7.9,13.4,3,19.4c-0.1,0.1,0,0.3,0,0.6c3.6,0,7.3-0.1,10.9,0c2.1-0.1,3.9,1.5,4.2,3.6
	c0.3,2.1-0.7,3.7-3,4.5c-0.8,0.2-1.6,0.3-2.4,0.2c-9.8,0-19.6,0-29.4,0c-0.8-0.1-1.6-0.1-2.4,0.2h-0.4c-0.7-0.5-1.5-0.1-2.2-0.2
	c-5.2-0.1-9.7-3.3-11.5-8.2c-0.9-2.7,0-5.5,2.3-6.6c2.3-1.1,4.7-0.2,6.3,2.3c2,3,2.9,3.5,6.4,3.5c-0.3-0.6-0.7-1.1-1.3-1.5
	c-8.6-7.3-17-14.7-25.5-22.1c-7.5-6.5-14.9-13-22.3-19.5c-1-0.8-1.9-1.7-2.9-2.4c-4.7-3.6-6.2-8.9-7.7-14.1c-1.8-6-3.7-12-5.7-17.9
	c-0.8,0.1-1.5,0.5-2,1.1c-5.6,5.2-11.5,10.3-17.1,15.6c-2,1.8-1.9,1.9,0.1,3.8c8.9,8.8,18.2,17.1,27.2,25.8
	c5.2,5,10.5,9.8,15.7,14.8c4.3,4.1,6.5,8.8,4.5,14.7c-0.5,1.5,0.1,1.9,1.5,1.9c1.3-0.1,2.5-0.1,3.8,0c1.8,0.1,3.3,1.3,3.9,3
	c0.7,1.5,0.4,3.4-0.7,4.6c-1,1.2-2.3,1.3-3.7,1.2c-10.2,0-20.3,0-30.5,0c-0.8-0.1-1.6-0.1-2.4,0.2L117.1,230.4z"/>
<path id="Path_2" class="st0" d="M17.6,25.9C17.5,11.7,28.9,0.1,43.1,0c14.4-0.1,26,11.5,26.1,25.9c-0.1,14.3-11.7,25.8-26,25.8
	C29.1,51.6,17.6,40.1,17.6,25.9z"/>
<path id="Path_3" class="st0" d="M14.2,228.3c-3.1,0-6.1,0-9.2,0c-3.1-0.1-5-1.7-4.9-4.3c0-2.6,1.9-4.3,5-4.3
	c6.1-0.1,12.3-0.1,18.4,0c3.1,0,5,1.8,5,4.3s-1.9,4.2-5,4.3C20.3,228.4,17.3,228.3,14.2,228.3z"/>
</svg>
