<?xml version="1.0" encoding="utf-8"?>
<!-- Generator: Adobe Illustrator 26.2.1, SVG Export Plug-In . SVG Version: 6.00 Build 0)  -->
<svg version="1.1" id="a" xmlns="http://www.w3.org/2000/svg" xmlns:xlink="http://www.w3.org/1999/xlink" x="0px" y="0px"
	 viewBox="0 0 641.4 628.1" style="enable-background:new 0 0 641.4 628.1;" xml:space="preserve">
<style type="text/css">
	.st0{fill:#D9D9D9;}
</style>
<path class="st0" d="M521.4,207.2h-0.2c0-20.8,0.1-41.6-0.2-62.3c-0.3-26.4-24.1-51.6-50.2-54.4c-9.4-1-18.4-0.9-27.2,3.3
	c-4.8-13.6-13.7-22.5-27.4-24.8c-8.1-1.4-16.6-0.5-24.9-0.7c-10-0.2-19.9-0.1-28.5,6.3c-8-11.1-18.4-16.5-31.8-16.1
	c-8.3,0.2-16.6,0-24.9,0c-10.6,0-19.3,4.3-26.2,12.2c-1.6,1.8-3,3.9-4.5,5.8c-2.6-1.1-5-2.8-7.5-3.1c-8.4-0.9-16.8-1.8-25.2-1.9
	c-28.3-0.1-47.7,19.6-47.8,48c0,22.8-0.1,45.6,0.1,68.4c0,3.5-0.8,5.3-4.4,6.3c-9,2.4-17.8,5.1-26.6,8
	c-29.3,9.7-46.6,35.2-43.6,65.2c3.4,34.8,15.9,66.2,35.8,94.9c13.5,19.5,30.9,35.1,49.6,49.4c11.9,9,23.5,18.4,35.4,27.7
	c-5.3,7.1-9,14.6-9.1,23.2c-0.2,22.5-0.4,44.9,0,67.4c0.2,12,5.3,22.5,15.1,29.6c5.9,4.3,13.1,6.7,19.7,10h191.5
	c0.6-0.3,1.2-0.6,1.8-0.8c21.8-5.6,34-21.2,34-43.6c0-19.1,0-38.2,0-57.4c0-9.5-2.2-18.5-8-26.2c-1.8-2.3-1.4-4-0.2-6.2
	c6.6-13,13.3-26,19.7-39.1c3.2-6.5,6-13.3,8.5-20.1c6.6-17.8,7.4-36.3,7.2-54.8C521.4,283.3,521.4,245.2,521.4,207.2L521.4,207.2z
	 M445.1,124c0.4-8.4,6.2-13.4,14.7-13.7c23-0.7,40,14.8,41.4,37.8c0.4,6.9,0.1,13.9,0.1,20.8c-18.9-5.1-37.5-10.1-56.2-15.1
	C445,143.9,444.6,133.9,445.1,124L445.1,124z M368.6,101c0.2-6.7,6.5-12.2,13.4-12.4c9.6-0.2,19.3-0.2,28.9,0
	c6.6,0.2,13.1,5.4,13.3,11.9c0.5,16.5,0.2,33.1,0.2,49.8c-18.7-1.5-36.9-3-55.9-4.6C368.5,130.8,368.2,115.9,368.6,101L368.6,101z
	 M291.7,94.6c0-9.5,5.9-15.7,15.3-16c8.6-0.2,17.3-0.3,25.9,0c9.1,0.3,14.9,6.2,14.9,15.2c0.2,16.6,0,33.2,0,49.8
	c0,0.8-0.1,1.6-0.2,2.3c-18.7,1.9-37,3.7-55.9,5.5c0-7.2,0-14.1,0-21C291.6,118.5,291.6,106.5,291.7,94.6L291.7,94.6z M214.9,119.5
	c0.1-17.1,11-27.9,28.1-28c4.3,0,8.6-0.1,12.9,0c8.6,0.3,14.9,5.4,15.2,14c0.6,15.9,0.3,31.9,0.2,47.8c0,1.1-2,2.8-3.3,3.2
	c-11.8,3.4-23.6,6.6-35.4,9.8c-6.6,1.8-12.9,3.9-17.8,11.1v-4.6C214.9,155,214.8,137.3,214.9,119.5L214.9,119.5z M430.6,549.4H299.3
	c0-6.5-0.5-12.7,0.1-18.7c0.9-10.1,8.1-16.8,18.2-16.9c31.6-0.2,63.2-0.2,94.7,0c10.7,0.1,17.9,7.7,18.3,18.5
	C430.8,537.9,430.6,543.5,430.6,549.4L430.6,549.4z M473.5,529.3c-0.5,12.5-9.1,19.5-21.9,20.1c-0.4-7.4-0.5-14.8-1.2-22.2
	c-1.7-17.6-17.1-33-34.7-33.2c-33.7-0.5-67.4-0.5-101.2,0c-19.5,0.3-35,17.7-35.6,38.5c-0.2,5.5,0,10.9,0,16.7
	c-15.9,1.7-26.9-7.8-27-23.1c-0.1-19.1-0.1-38.2,0-57.4c0-15.7,9-24.8,24.8-24.8c52,0,104,0,156,0c6,0,12-0.1,17.9,0
	c13.4,0.3,22.5,7.6,23,20.5C474.3,486.1,474.3,507.7,473.5,529.3L473.5,529.3z M501.2,330.4c0,19.2-3.9,37.5-12.6,54.8
	c-6.5,13-13.1,26.1-19.7,39.1c-0.4,0.8-1,1.6-0.9,1.4c-8.2-0.6-15.6-1.7-23-1.7c-55.9-0.1-111.7-0.1-167.6-0.1
	c-2.5,0-5.3-0.6-7.4,0.4c-10.4,4.5-17.7-0.4-24.8-7.1c-4.6-4.3-9.9-7.9-14.8-11.8c-1.1-0.9-2.1-1.8-4-3.5h6c18.4,0,36.9,0,55.4,0
	c7.4,0,11.8-4.5,11.2-10.9c-0.5-5.8-4.6-9-11.5-9.1c-27.4,0-54.9,0-82.3-0.1c-2.1,0-4.8-0.6-6.3-1.9c-13.2-11.6-24.2-25-33.3-40.1
	c-13.5-22.3-21.6-46.4-24.8-72.4c-2.4-19.9,7-37.4,25.7-44.5c11.1-4.2,22.7-7.2,34.1-10.6c0.4-0.1,0.9,0.2,1.6,0.5
	c-2,5.6-4,11-5.8,16.5c-0.8,2.3-1.3,4.8-1.3,7.3c-0.1,15-0.1,29.9-0.1,44.9c0,6.7,4.1,11.4,9.8,11.5c5.9,0.1,10.1-4.7,10.1-11.8
	c0-13.5,0-26.9,0-40.4c0-1.8,0.2-3.7,0.7-5.4c5.3-15,10.6-30,16.1-44.9c0.6-1.6,2.3-3.4,3.8-3.9c32-10.5,64.8-16.9,98.3-19.2
	c40.9-2.8,81.3,0.3,121.1,9.9c15.5,3.8,30.8,8.5,46.2,12.8c0,14.5,0,27.9,0,41.4c0,0.5,0,0.9,0.1,1.4c0,26.3,0,52.6,0,79v0
	C501,318.1,501.2,324.2,501.2,330.4L501.2,330.4z"/>
</svg>
