<?xml version="1.0" encoding="utf-8"?>
<!-- Generator: Adobe Illustrator 24.1.0, SVG Export Plug-In . SVG Version: 6.00 Build 0)  -->
<svg version="1.1" id="rugby_lague_" xmlns="http://www.w3.org/2000/svg" xmlns:xlink="http://www.w3.org/1999/xlink" x="0px"
	 y="0px" viewBox="0 0 221.5 214.2" style="enable-background:new 0 0 221.5 214.2;" xml:space="preserve">
<style type="text/css">
	.st0{fill:#707070;}
</style>
<path id="Path_49" class="st0" d="M221.5,60.8c-0.1,18.7-5.1,36.3-13.5,52.8c-22.7,44.5-57.5,75.9-104.5,93.1
	c-15.9,5.8-32.5,8.6-49.6,6.9c-14.4-1.4-27.6-5.9-38-16.4c-10.9-11-15.1-24.7-15.8-39.8c-0.8-20,4.3-38.8,13.3-56.5
	C36.7,55.2,72.4,23.2,121.2,6.4c16.2-5.6,33-7.9,50.2-5.4c15.3,2.2,28.8,8.1,38.4,20.7c7.9,10.3,11,22.3,11.6,35
	C221.6,58.1,221.5,59.5,221.5,60.8z M44.6,197c2.7-0.1,4.6-0.2,6.6-0.3c0.6,0,1.2-0.1,1.8-0.2c14-1.7,26.8-6.8,39.1-13.4
	c20.7-11.1,38.9-25.6,55.8-41.6c16.7-15.8,32.1-32.8,43.8-52.8c7.8-13.3,13.4-27.2,14.3-42.8c0.5-8.7-2.1-15.8-8.5-21.7
	c-3.3-3-6.6-5.8-11.3-6.4c-7.1-1-14.3-0.9-21.3,0.3c-15.6,2.7-29.7,9.1-43.1,17.2c-21.7,13-40.7,29.5-58.4,47.5
	c-14.4,14.6-27.3,30.3-36.8,48.6c-6.2,11.8-10.5,24.2-10.8,37.6c-0.1,3.6-0.5,7.8,1.1,10.8c4.3,8.3,10,15.8,20.5,16.7
	C40,196.7,42.7,196.9,44.6,197z M171.8,12.3c-0.4-0.2-0.8-0.3-1.2-0.4c-2.3-0.3-4.6-0.6-6.8-0.7c-15.9-0.8-31.1,2.3-45.9,7.9
	C89.6,29.9,66,47.5,46.4,70.4c-16.2,19-28.1,40.2-33.3,64.8c-1.7,8.1-2.6,16.2-1.6,24.5c2-10.5,5.6-20.7,10.7-30.1
	C30.4,114,41,100.1,52.9,87.2c19-20.5,39.7-39.1,63.5-54C133.4,22.5,151.4,14.4,171.8,12.3z M50.9,202.2c2.3,0.2,4.5,0.6,6.8,0.7
	c17.3,0.9,33.8-2.8,49.7-9.4c29.9-12.4,54.4-31.9,73.9-57.6c14.9-19.5,25.6-40.9,28.6-65.5c0.7-5.5,0.1-11.1,0.1-16.8
	c-0.7,3.2-1.3,6.3-2.1,9.3c-4.3,15.9-12.2,30-22,43.1c-21.3,28.3-47.2,52.8-76.7,72.5C91.5,190.5,72.5,199.5,50.9,202.2z"/>
</svg>
