<?xml version="1.0" encoding="utf-8"?>
<!-- Generator: Adobe Illustrator 24.1.0, SVG Export Plug-In . SVG Version: 6.00 Build 0)  -->
<svg version="1.1" id="snookar_" xmlns="http://www.w3.org/2000/svg" xmlns:xlink="http://www.w3.org/1999/xlink" x="0px" y="0px"
	 viewBox="0 0 219.2 237.2" style="enable-background:new 0 0 219.2 237.2;" xml:space="preserve">
<style type="text/css">
	.st0{fill:#707070;}
</style>
<path id="Path_8" class="st0" d="M65.4,97.3c0.1-23.9,19.6-43.2,43.5-43c0.1,0,0.2,0,0.3,0c24,0.2,43.3,19.8,43.1,43.8
	c-0.2,24.2-19.8,43.2-44.2,42.9C84.2,140.7,65.1,121.2,65.4,97.3C65.4,97.3,65.4,97.3,65.4,97.3z"/>
<path id="Path_9" class="st0" d="M103.2,45.8c-25,2.9-45.6,23.1-46.7,53c-13.5-2.8-25.4-19.5-25.4-35.5
	c0.1-18.1,13.2-34.4,30.4-37.7C78.6,22.3,97.4,31.3,103.2,45.8z"/>
<path id="Path_10" class="st0" d="M161.1,98.9c-2.8-29-17.1-47.6-46.2-53.2c3.4-11.7,21.5-21.9,36.5-20.5
	c18.7,1.8,33.5,16.4,35.1,34.7C187.9,77.2,176.7,94.7,161.1,98.9z"/>
<path id="Path_11" class="st0" d="M195.1,65.3c0.2-12.4-3.5-23.4-11.8-32.7c-7.8-9-18.8-14.6-30.7-15.8c3-10,19.3-18.1,33.1-16.5
	c16,1.8,28.8,15.8,29.9,32.6C216.5,46.4,206.5,62.5,195.1,65.3z"/>
<path id="Path_12" class="st0" d="M206.9,237.2c-3-0.9-6-2.1-8.9-3.4c-20-10-40-20-59.9-30.2c-6-3-8-8-5.4-12.9
	c1.8-3.5,4.6-4.7,8.3-3.1c23.7,10.2,47.4,20.4,71,30.7c3.4,1.5,6.2,3.7,7.1,7.5C220.3,232,215.6,237.1,206.9,237.2z"/>
<path id="Path_13" class="st0" d="M72.1,16.4c-25.8-1.1-47.8,18.6-49.6,44.4C14.6,57.9,8.2,43.5,9.2,30.8
	C10.4,16.3,22.6,3.2,37.5,0.5C51.1-2,66.8,5.1,72.1,16.4z"/>
<path id="Path_14" class="st0" d="M130.8,183.1c-5.6,3.5-7.6,7.6-5.7,13.6c-1.6-0.7-2.7-1.1-3.7-1.6c-38.7-19.5-77.4-39-116.1-58.6
	c-1.4-0.7-3.1-1.3-4-2.5c-0.9-1-1.6-3-1.2-4.1c0.4-1,2.4-1.8,3.7-1.8c1.5,0,3,0.8,4.5,1.4c36.4,15.8,72.7,31.7,109,47.5
	C121.6,179,125.8,180.9,130.8,183.1z"/>
<path id="Path_15" class="st0" d="M82,18.2C89,6.7,98.5,0.5,111.4,0.1c13-0.4,22.8,5.4,30.4,16.8c-14.2,2.4-25,9.3-32.8,21.3
	C102.7,28.5,93.1,21.4,82,18.2z"/>
</svg>
