<?xml version="1.0" encoding="utf-8"?>
<!-- Generator: Adobe Illustrator 24.1.0, SVG Export Plug-In . SVG Version: 6.00 Build 0)  -->
<svg version="1.1" id="Layer_1" xmlns="http://www.w3.org/2000/svg" xmlns:xlink="http://www.w3.org/1999/xlink" x="0px" y="0px"
	 viewBox="0 0 130.4 150" style="enable-background:new 0 0 130.4 150;" xml:space="preserve">
<style type="text/css">
	.st0{fill:#707070;}
</style>
<g id="_54094-g" transform="translate(-4.483 -3.51)">
	<path id="Path_238" class="st0" d="M134.8,38.4v-1.9c-0.2-1.5-0.4-3-0.8-4.4C131.3,17.4,119.4,6,104.5,3.9
		c-1.6-0.2-3.2-0.4-4.8-0.4h-6C81.8,4.1,70.3,8.4,61.1,16c-6.3,5.5-11.3,12.3-14.6,20c-3.8,7.7-6.1,16-6.8,24.5
		c-0.3,6.7-1.2,13.4-2.6,20c-0.9,4.4-3.1,8.4-6.3,11.5c-5.9,5.7-11.7,11.6-17.4,17.3l-7,7.1c-2,1.4-2.5,4.1-1.1,6.1
		c0.3,0.4,0.7,0.8,1.1,1.1l7.8,7.8c1,1.2,2.4,2,3.9,2.2c1.5-0.2,2.9-0.9,3.9-2.1l6.7-6.7c6.4-6.5,12.8-12.9,19.3-19.2
		c1.1-1.2,2.5-2.2,4.1-2.7c4-1.3,8-2.2,12.1-2.8c2.8,0,5.8-0.6,8.6-0.8l5.9-0.9c8.4-0.9,16.6-3.2,24.2-6.8
		c16.3-7.1,27.9-21.9,30.9-39.4c0.1-1.5,0.4-3,0.7-4.5v-2.2L134.8,38.4z M53.1,93.1l-6.5,2.3l-4.1-4.1l2.4-6.6
		c1.1,1.6,2.3,3.1,3.6,4.5C49.9,90.6,51.4,91.9,53.1,93.1L53.1,93.1z M111.7,75.6c-7.3,6.6-16.2,11.1-25.9,12.9
		c-6.4,1.7-13,1.9-19.5,0.7c-9.4-1.6-16.6-9.4-17.4-18.9v-5.8c0.5-11.2,3.9-22,10-31.4C65.6,22,77,14.7,89.8,13
		c6.7-1.4,13.6-0.9,20,1.5c9.5,3.2,16.3,11.8,17.2,21.8C129,51.2,123.2,66,111.7,75.6L111.7,75.6z M39.7,101.1L18,122.4l-2.6-2.6
		l21.3-21.3L39.7,101.1z"/>
	<path id="Path_239" class="st0" d="M61.5,106c-12.6,2-21.5,13.6-20,26.3c0.7,9.3,7,17.2,15.8,20c1.6,0.5,3.2,0.9,4.9,1.2h5.2
		c6.9-0.8,13.1-4.4,17.1-10c7.8-10.7,5.5-25.6-5.1-33.4c-5-3.7-11.3-5.3-17.5-4.4L61.5,106z M61.5,144.2c-5.3-1.3-9.5-5.5-10.8-10.8
		c5.1,1.5,9.1,5.6,10.3,10.8L61.5,144.2z M79.6,134.2c-1.4,4.4-4.8,7.8-9.2,9.2c-2-9.9-9.9-17.5-19.9-18.9c1.6-4.3,5-7.7,9.3-9.2
		c0.7,5,3,9.6,6.6,13.2c3.5,3.3,7.9,5.5,12.7,6.1L79.6,134.2z M69.6,114.2c5.2,1.7,9.1,6.2,10.1,11.6c-5.4-1.3-9.7-5.5-11.1-10.9
		L69.6,114.2z"/>
</g>
</svg>
