<svg id="Layer_1" data-name="Layer 1" xmlns="http://www.w3.org/2000/svg" viewBox="0 0 512 512"><defs><style>.cls-1{fill:#707070;}</style></defs><path class="cls-1" d="M506,240.37v31.24c-.28,1.26-.63,2.51-.82,3.78-1.7,11.56-2.77,23.25-5.14,34.68-20.11,97-102.88,176.18-200.4,192-9.27,1.51-18.61,2.58-27.91,3.85H240.49c-1.41-.28-2.81-.63-4.24-.85-11.88-1.77-23.93-2.78-35.62-5.38C61.82,468.86-23.67,324.71,15.55,188,52.8,58.11,183.58-18.18,315.39,13.06,410.76,35.66,486,116.13,502.21,212.91,503.73,222,504.75,231.21,506,240.37Zm-118,194c11.43-11.06,22.4-21.61,33.26-32.28A8.19,8.19,0,0,0,423,398.2a212.19,212.19,0,0,0,3.62-84.26c-8.81-55.18-34.61-101-77.42-137a209.57,209.57,0,0,0-48.5-30.45,7.2,7.2,0,0,0-1.21,1.16c-1.13,2-2.25,4-3.3,6a221.26,221.26,0,0,0-24.83,89c-.26,4.12.84,6.32,4.27,8.61,51.07,34.09,85.54,80.55,102.6,139.58C382.18,404.5,384.51,418.64,388,434.39ZM139.27,272.23a27.87,27.87,0,0,0,2.87.34,216.5,216.5,0,0,0,96.94-24.42c1.53-.79,2.69-3.43,2.94-5.36,1.11-8.53,1.32-17.21,2.75-25.68q16.72-99.53,96.89-161c.82-.63,1.53-1.4,2.69-2.48a203.09,203.09,0,0,0-42.68-13.51,12.24,12.24,0,0,0-5.67.33C251.62,54,214.86,78.9,186.15,115.36,158.1,151,142.54,191.58,139.39,236.77,138.57,248.52,139.27,260.38,139.27,272.23Zm189.5,76.61c-1.12-2-1.94-3.52-2.87-5a222.15,222.15,0,0,0-66.45-68.39c-3-2-5.19-2.05-8.35-.48C191,304.84,128.7,309.68,64.5,290.45c-9.11-2.73-18-6.22-27.42-9.51a196.68,196.68,0,0,0,9.42,43.92,7,7,0,0,0,2.14,2.59c4.84,4.34,9.51,8.91,14.62,12.9,55.66,43.46,118.22,57.8,187.2,43.34C278.76,377.76,304.63,365.8,328.77,348.84ZM342,375.45c-39.75,26.33-82.76,40.84-129.87,42.77s-91.25-8.83-132.83-31a38.28,38.28,0,0,0,4.26,6.21c40.55,49.32,92.37,77.36,156.21,82.48,40.49,3.25,78.87-4.58,115.28-22.5,2.73-1.35,4-2.83,3.56-5.93-1.07-8.21-1.62-16.51-2.95-24.68A205.71,205.71,0,0,0,342,375.45ZM109.67,271C106.27,170.31,146.33,92.8,230.16,37.1c-2.28.17-3.74.19-5.17.4-29.61,4.35-57.56,13.63-82.88,29.65Q44.82,128.7,35.78,243.73c-.22,2.84.76,4.22,3.17,5.12,15.18,5.65,30.22,11.71,45.59,16.81C92.58,268.32,101.19,269.28,109.67,271ZM459,342.41c.65-1.44,1-2.15,1.3-2.89,18.63-46.18,21.62-93.44,8.61-141.44-14.47-53.35-45.46-95-91-126.15-2.39-1.63-4.34-2.84-7.21-.45-11.61,9.65-23.73,18.71-35,28.75-7,6.19-12.67,13.77-18.92,20.7C405.74,168.5,452.71,241.91,459,342.41Z"/></svg>