<?xml version="1.0" encoding="utf-8"?>
<!-- Generator: Adobe Illustrator 24.1.0, SVG Export Plug-In . SVG Version: 6.00 Build 0)  -->
<svg version="1.1" id="Layer_1" xmlns="http://www.w3.org/2000/svg" xmlns:xlink="http://www.w3.org/1999/xlink" x="0px" y="0px"
	 viewBox="0 0 512 512" style="enable-background:new 0 0 512 512;" xml:space="preserve">
<style type="text/css">
	.st0{fill:#FFFFFF;}
</style>
<path class="st0" d="M506,240.4v31.2c-0.3,1.3-0.6,2.5-0.8,3.8c-1.7,11.6-2.8,23.2-5.1,34.7c-20.1,97-102.9,176.2-200.4,192
	c-9.3,1.5-18.6,2.6-27.9,3.9h-31.2c-1.4-0.3-2.8-0.6-4.2-0.9c-11.9-1.8-23.9-2.8-35.6-5.4C61.8,468.9-23.7,324.7,15.6,188
	C52.8,58.1,183.6-18.2,315.4,13.1C410.8,35.7,486,116.1,502.2,212.9C503.7,222,504.8,231.2,506,240.4z M388,434.4
	c11.4-11.1,22.4-21.6,33.3-32.3c0.9-1.1,1.5-2.5,1.7-3.9c6.8-27.6,8.1-56.2,3.6-84.3c-8.8-55.2-34.6-101-77.4-137
	c-14.7-12.3-31-22.6-48.5-30.4c-0.4,0.3-0.9,0.7-1.2,1.2c-1.1,2-2.2,4-3.3,6c-14.4,27.6-22.9,57.9-24.8,89c-0.3,4.1,0.8,6.3,4.3,8.6
	c51.1,34.1,85.5,80.5,102.6,139.6C382.2,404.5,384.5,418.6,388,434.4L388,434.4z M139.3,272.2c1,0.2,1.9,0.3,2.9,0.3
	c33.8-0.5,67-8.8,96.9-24.4c1.5-0.8,2.7-3.4,2.9-5.4c1.1-8.5,1.3-17.2,2.8-25.7c11.1-66.4,43.4-120,96.9-161
	c0.8-0.6,1.5-1.4,2.7-2.5c-13.7-6.1-28-10.6-42.7-13.5c-1.9-0.3-3.8-0.2-5.7,0.3c-44.4,13.5-81.1,38.4-109.9,74.9
	c-28,35.6-43.6,76.2-46.8,121.4C138.6,248.5,139.3,260.4,139.3,272.2z M328.8,348.8c-1.1-2-1.9-3.5-2.9-5
	c-16.9-27.3-39.6-50.7-66.5-68.4c-3-2-5.2-2-8.4-0.5c-60.1,29.9-122.4,34.7-186.6,15.5c-9.1-2.7-18-6.2-27.4-9.5
	c1.5,15,4.6,29.7,9.4,43.9c0.5,1,1.2,1.9,2.1,2.6c4.8,4.3,9.5,8.9,14.6,12.9c55.7,43.5,118.2,57.8,187.2,43.3
	C278.8,377.8,304.6,365.8,328.8,348.8L328.8,348.8z M342,375.5c-39.8,26.3-82.8,40.8-129.9,42.8s-91.2-8.8-132.8-31
	c1.2,2.2,2.6,4.3,4.3,6.2c40.5,49.3,92.4,77.4,156.2,82.5c40.5,3.2,78.9-4.6,115.3-22.5c2.7-1.4,4-2.8,3.6-5.9
	c-1.1-8.2-1.6-16.5-3-24.7C353,406.5,348.4,390.6,342,375.5z M109.7,271c-3.4-100.7,36.7-178.2,120.5-233.9
	c-2.3,0.2-3.7,0.2-5.2,0.4c-29.6,4.3-57.6,13.6-82.9,29.7C77.3,108.2,41.8,167,35.8,243.7c-0.2,2.8,0.8,4.2,3.2,5.1
	c15.2,5.6,30.2,11.7,45.6,16.8C92.6,268.3,101.2,269.3,109.7,271z M459,342.4c0.6-1.4,1-2.1,1.3-2.9c18.6-46.2,21.6-93.4,8.6-141.4
	c-14.5-53.4-45.5-95-91-126.2c-2.4-1.6-4.3-2.8-7.2-0.4c-11.6,9.7-23.7,18.7-35,28.8c-7,6.2-12.7,13.8-18.9,20.7
	C405.7,168.5,452.7,241.9,459,342.4z"/>
</svg>
