<svg id="Layer_1" data-name="Layer 1" xmlns="http://www.w3.org/2000/svg" viewBox="0 0 300 200"><defs><style>.cls-1{fill:#fff;}.cls-2{fill:#cdfb0a;}</style></defs><path class="cls-1" d="M167.81,189V175.38h-6.09l-.07,14.08a5.44,5.44,0,0,1-10.86,0V175.38H144.7V189c0,7.2,4.65,11,11.52,11S167.81,196.27,167.81,189Zm24.75,5.63H180.51v-4.91H190v-4.84h-9.5v-4.39h11.72v-5.11H174.42v24.29h18.14v-5ZM129.7,180.55a16.34,16.34,0,0,1,7.27,1.51l1.51-5.3a20.08,20.08,0,0,0-9-1.71c-8.25,0-13.88,5.5-13.88,12.44S121.19,200,129.38,200c5.5,0,8.51-2,9.75-3V187.1l-5.63.72V194a9.31,9.31,0,0,1-3.8.79c-4.32,0-7.79-3-7.79-7.34s3.21-6.94,7.79-6.94Zm88.2,19.12V175.38h-3.47l-9,4.91,1.18,5.11,5.37-2.82v17.09Zm-136-24.29v24.29H99.58v-5H88.06V175.38Zm22.13,0h6.09v24.29H104Z"/><path class="cls-2" d="M196.82,79.07a276.34,276.34,0,0,1-24.95,40.72,299.86,299.86,0,0,1-39.88.33L115.43,146.7c25.4,2.43,48.45,3,72.09-.65,17-20.82,30-42.23,41.71-66.79-9-21.15-21.42-40.46-35.1-58.53l-16.5,26.38A254.67,254.67,0,0,1,196.82,79.07Zm-74.45,22.19a287.62,287.62,0,0,1-19.32-31.95,266.69,266.69,0,0,1,25-40.73,299.72,299.72,0,0,1,39.87-.32L184.57,1.67a327.89,327.89,0,0,0-72.09.66A309.1,309.1,0,0,0,70.77,69.25c9.24,21.08,20.83,39.54,35.1,58.4l16.5-26.39Z"/><path class="cls-1" d="M149.93,95.63a21.48,21.48,0,1,0-21.47-21.47A21.48,21.48,0,0,0,149.93,95.63Z"/></svg>