<svg id="Layer_1" data-name="Layer 1" xmlns="http://www.w3.org/2000/svg" xmlns:xlink="http://www.w3.org/1999/xlink" viewBox="0 0 300 200"><defs><style>.cls-1{fill:#1a1659;}.cls-2{fill:#00b74f;}.cls-3{fill:#e3e3e2;}.cls-4{fill:#e4002b;}.cls-5{fill:url(#linear-gradient);}.cls-6{fill:url(#linear-gradient-2);}</style><linearGradient id="linear-gradient" x1="127.38" y1="-40.32" x2="175.26" y2="-40.32" gradientTransform="translate(0 164)" gradientUnits="userSpaceOnUse"><stop offset="0" stop-color="#31ecff"/><stop offset="0.05" stop-color="#2de2ff"/><stop offset="0.3" stop-color="#1bb2ff"/><stop offset="0.51" stop-color="#0e90ff"/><stop offset="0.69" stop-color="#067bff"/><stop offset="0.81" stop-color="#0373ff"/></linearGradient><linearGradient id="linear-gradient-2" x1="186.82" y1="-157.28" x2="144.15" y2="-40.05" gradientTransform="translate(0 164)" gradientUnits="userSpaceOnUse"><stop offset="0" stop-color="#31ecff"/><stop offset="0.05" stop-color="#2de2ff"/><stop offset="0.29" stop-color="#1bb2ff"/><stop offset="0.51" stop-color="#0e90ff"/><stop offset="0.69" stop-color="#067bff"/><stop offset="0.8" stop-color="#0373ff"/></linearGradient></defs><path class="cls-1" d="M88.69,178.32a.43.43,0,0,1,0-.6l2.84-3.27a.39.39,0,0,1,.56,0A10.63,10.63,0,0,0,98.71,177c2.66,0,4.1-1.21,4.1-3,0-1.49-.93-2.38-3.91-2.84l-1.35-.19c-5.18-.7-8-3.12-8-7.65s3.49-7.74,9-7.74a14.08,14.08,0,0,1,8.63,2.66c.23.14.23.33,0,.56l-2.29,3.4a.38.38,0,0,1-.51.14,10.31,10.31,0,0,0-5.92-1.91c-2.24,0-3.41,1.17-3.41,2.75s1,2.38,3.92,2.75l1.35.24c5.22.7,8,3.07,8,7.69s-3.4,8-10,8C94.47,181.77,90.65,180.23,88.69,178.32Z"/><path class="cls-1" d="M111.34,156.41a.34.34,0,0,1,.38-.37h16.22a.34.34,0,0,1,.37.37v4a.34.34,0,0,1-.37.37H117c-.14,0-.23.05-.23.24v5c0,.14,0,.23.23.23h9.14a.34.34,0,0,1,.37.38v3.91a.34.34,0,0,1-.37.38h-9.09c-.14,0-.23,0-.23.23v5.22c0,.14,0,.23.23.23H128a.34.34,0,0,1,.37.38v4a.34.34,0,0,1-.37.37H111.72a.34.34,0,0,1-.38-.37Z"/><path class="cls-1" d="M145.66,181.4c-.33,0-.42-.14-.56-.37l-4.38-9.28h-3.45c-.14,0-.24,0-.24.23V181a.34.34,0,0,1-.37.37H131.9a.34.34,0,0,1-.37-.37V156.41a.34.34,0,0,1,.37-.37H142c5.18,0,8.63,3.26,8.63,7.88a7.32,7.32,0,0,1-4.48,7l5,10a.26.26,0,0,1-.23.42H145.7l0,.09Zm-.42-17.48c0-1.92-1.35-3.13-3.45-3.13h-4.48c-.14,0-.23.05-.23.24v5.87c0,.14,0,.23.23.23h4.48C143.89,167.09,145.24,165.83,145.24,163.92Z"/><path class="cls-1" d="M154.14,156.41a.34.34,0,0,1,.37-.37h4.76a.34.34,0,0,1,.37.37V181a.34.34,0,0,1-.37.37h-4.76a.34.34,0,0,1-.37-.37Z"/><path class="cls-1" d="M163.7,156.41a.34.34,0,0,1,.37-.37H180.3a.34.34,0,0,1,.37.37v4a.34.34,0,0,1-.37.37H169.39c-.14,0-.24.05-.24.24v5c0,.14,0,.23.24.23h9.09a.34.34,0,0,1,.37.38v3.91a.34.34,0,0,1-.37.38h-9.09c-.14,0-.24,0-.24.23v5.22c0,.14,0,.23.24.23H180.3a.34.34,0,0,1,.37.38v4a.34.34,0,0,1-.37.37H164.07a.34.34,0,0,1-.37-.37Z"/><path class="cls-1" d="M198.9,156.41a.46.46,0,0,1,.51-.37h4.66a.53.53,0,0,1,.51.37L213.12,181c0,.23,0,.37-.24.37H208a.55.55,0,0,1-.51-.37L206,176.6h-8.86l-1.4,4.43a.46.46,0,0,1-.51.37h-4.85c-.23,0-.37-.14-.23-.37Zm5.64,15.52-2.89-8.85h-.14l-2.89,8.85Z"/><rect class="cls-2" x="64.68" y="193.8" width="57.86" height="6.2"/><rect class="cls-3" x="122.53" y="193.8" width="57.72" height="6.2"/><rect class="cls-4" x="180.25" y="193.8" width="57.86" height="6.2"/><polygon class="cls-1" points="151.34 143.26 89.62 104.1 127.38 104.1 151.34 143.26"/><polygon class="cls-1" points="151.34 143.26 213.12 104.1 175.26 104.1 151.34 143.26"/><polygon class="cls-1" points="151.34 40.93 127.38 104.1 151.34 104.1 175.26 104.1 151.34 40.93"/><polygon class="cls-5" points="127.38 104.1 151.34 143.26 175.26 104.1 127.38 104.1"/><path class="cls-6" d="M151.34,40.93l10.35,27.28H148.64L139.78,91.7H170.6l4.66,12.45h37.86L168.36,0H134.28L89.62,104.1h37.86Z"/></svg>