<svg id="Layer_1" data-name="Layer 1" xmlns="http://www.w3.org/2000/svg" viewBox="0 0 300 200"><defs><style>.cls-1{fill:#d20515;}.cls-2{fill:#fff;}</style></defs><rect class="cls-1" x="45.21" width="209.65" height="167.65"/><path class="cls-2" d="M217.93,88.35c0,.36-.36.73-1.09,1.09l-.36.36v.36c0,.36,0,.36-.36.73l-.73.36h-.72v-.36l-.73.36v.36c0,.36,0,.36-.36.72l-.72.37h-.73v-.37c-2.53,1.45-5.79,2.54-8.69,4v.36c0,.36,0,.36-.36.72l-.72.37h-.73l-.36-.37-1.09.37.37.36c0,.36,0,.36-.37.72l-.72.36h-.72l-.37-.36c-1.44.73-2.89.73-4-1.45-.36-1.08-.36-3.25-.72-4.34a1.29,1.29,0,0,0-1.09-.73c-13.76-2.53-18.1.37-27.16-1.81-2.89-.72-4.34-3.25-7.6-3.25-7.24-.37-9.41,0-17.74-.37a5.78,5.78,0,0,0-.36,1.45H111.47l4.35,2.17,1.45,12.32a8.33,8.33,0,0,1-1.45.36c.36,2.53.36,5.79.72,8.69,0,2.53.36,5.43.36,7.24a6.66,6.66,0,0,1-.72,3.26,4.2,4.2,0,0,1-2.17,2.17,25.09,25.09,0,0,1-2.54,1.81l-3.62,1.81c0,.36.36.73.36,1.09-17,8.33-38.38,10.86-45.26,24.26-.72,1.45-3.62.72-3.62-1.09v-2.53H59c-.36,0-.36-.36-.36-.73v-.72a1.26,1.26,0,0,1,.36-.72h.36c0-.73.36-1.45.36-2.18h-.36c-.36,0-.36-.36,0-.72l.36-.73c0-.36.36-.72.73-.36h.36c1.08-2.9,3.62-4,4.71-6.88h0c-.37,0-.37-.36,0-.72l-.37-.73c0-.36.37-.72.73-.36h.36c0-.36.36-.72.72-1.08h-.36c-.36,0-.36-.37,0-.73l.36-.72c.37-.37.37-.37.73-.37h0l.36-.36a3.3,3.3,0,0,1,3.62,0,7.62,7.62,0,0,0,9.42-.72c6.51-6.16,14.48-14.12,20.27-14.49-1.45-3.25-4.34-10.5-4.7-13.39l-1.81-.36c-1.09-2.18-3.63-12.32-4.35-20.28,0,0-.72-8.33,0-11.23a5.34,5.34,0,0,0-1.45.73c-1.08-2.54,2.54-25,5.8-31.5l5.43-2.18c-.73,0-4.35-.36-14.49-1.08-5.79,5.07-12,10.5-15.57,13.39-.72.37-1.45,3.62-1.45,3.62a19,19,0,0,1-3.25,2.54c-2.18,1.45-6.88,2.53-8,.72-.36-.36-.36-.72,0-.72.72-.73,3.62-2.17,4.71-4-1.45.72-3.26,1.81-4.71,1.44-.72,0-1.09-1.44,0-1.81a11.63,11.63,0,0,0,5.07-2.89,5.22,5.22,0,0,1,4.71-2.9s9.41-12.31,14.84-18.1c1.45-1.45,4.35-1.09,4.35-1.09l.36-1.81s18.83-2.17,27.88.72c-.36-5.43,2.17-12.31,10.5-12.31,4.35,0,10.5,4,11.59,8.33.36,1.45-.73,2.53-1.09,4.35-.72,2.89.36,5.79,0,6.51s-1.08.73-1.81,1.81-1.81,3.26-1.81,3.26L131,40.92l-5.79-.36c-2.17,4.7-6.52,14.12-8,23.53h0c4.7.36,25.7,3.26,25.7,3.26l.37,1.81a64.42,64.42,0,0,1,15.93,4.35c1.45.36,5.79-.37,8.33,1.08l.72-.72c9.42,2.89,17.38,8,26.43,10.14l5.8,1.44c3.26.73,5.43.73,7.24,1.09a46.77,46.77,0,0,0,6.52.36c1.08-.36,3.26-.72,3.62,1.45m13.76-28.6a11.59,11.59,0,1,0,11.58,11.58A11.66,11.66,0,0,0,231.69,59.75Z"/><path class="cls-2" d="M63.7,193.48c0,4-1.89,6.12-6.92,6.12H45.14V177.11h11.2c5.22,0,7,2,7,5.87,0,2.89-1.09,4.23-4.18,5l-.59.15.49.1C62.61,189,63.7,190.3,63.7,193.48Zm-13.19-7h4.73c1.89,0,2.69-.79,2.69-2.73s-.8-2.84-2.69-2.84H50.51Zm7.77,6.42c0-2-.85-2.93-2.74-2.93h-5v5.82h5C57.53,195.77,58.28,194.92,58.28,192.93Zm9.1-.64V177.11H73v15c0,2.49,1.14,3.43,4.18,3.43s4.18-.94,4.18-3.43v-15H87v15.13c0,5.27-3.09,7.71-9.75,7.71C70.42,200,67.38,197.56,67.38,192.29Zm45.84-15.18V199.6H106.4l-9.56-16.27V199.6H91.62V177.11h6.81L108,193.38V177.11Zm4.62,0h10c7.86,0,10,3.23,10,11.19,0,7.77-2.24,11.25-10,11.25h-10Zm9.86,18.21c3.28,0,4.33-1.69,4.33-7s-1.05-6.92-4.33-6.92h-4.28v13.88Zm14.18-18.21H157.6v4.28H147.5v4.73h8.41v4.23H147.5v4.92h10.35v4.28h-16Zm19.26,21.6v-4.38a23.36,23.36,0,0,0,7.51,1.24c2.59,0,3.73-.7,3.73-2.44,0-1.49-.49-2-2.53-2.39l-3.74-.79c-3.88-.8-5.17-2.39-5.17-6.22,0-4.93,2.88-7.07,8.76-7.07a19.92,19.92,0,0,1,7.16,1.25v4.37a20.48,20.48,0,0,0-6.82-1.19c-2.78,0-3.68.75-3.68,2.49,0,1.44.65,1.89,2.44,2.24l3.63.79c4.23.9,5.38,2.34,5.38,6.37,0,4.83-3,7-9,7A22.63,22.63,0,0,1,161.14,198.71Zm20.5-21.6h5.62v18.16h9.66v4.28H181.69Zm18.76,0H206V199.6H200.4Zm28.86,9.5v12.24A25.38,25.38,0,0,1,221.5,200c-7.81,0-11.5-3.43-11.5-11.64s3.69-11.65,11.5-11.65a20.73,20.73,0,0,1,7.41,1.24v4.33a22.16,22.16,0,0,0-7-1.19c-4.73,0-6.17,1.89-6.17,7.21,0,5.53,1.54,7.37,6,7.37a18.81,18.81,0,0,0,2.93-.2v-5H220.5v-3.89Zm18.31,8.26h-8.8l-1.6,4.73H231.6l8-22.49h7.17l8,22.49h-5.62Zm-4.37-14.23L240,190.79h6.47Z"/></svg>