<svg id="Layer_1" data-name="Layer 1" xmlns="http://www.w3.org/2000/svg" viewBox="0 0 300 200"><defs><style>.cls-1{fill:#fff;}</style></defs><path class="cls-1" d="M148.53,36.12a73.15,73.15,0,0,1,52.58,22.23l2.12-2.08a76.26,76.26,0,0,0-109.41,0l2.12,2.08A73.21,73.21,0,0,1,148.53,36.12Zm0,31.51a42,42,0,0,1,31.68,14.42l2.23-2a45,45,0,0,0-67.82,0l2.24,2A41.94,41.94,0,0,1,148.53,67.63Zm41.35-13.32a1.64,1.64,0,0,0-2.14-.05L171.05,65.14l3.53,2,12-7.84-1.9,6.59-1.56-1.2L180,66.75l3.68,2.84-1.07,3.7,3.13,2.88L191.23,57a1.64,1.64,0,0,0-.6-2.06Zm-73,13.23a4.73,4.73,0,0,0,1.81-3.08c.12-1.37-.25-2.32-1.56-3.93l-6.63-8.2,3-2.4,7.25,9a7.64,7.64,0,0,1,1.91,5.81,9.41,9.41,0,0,1-9.67,7.88,7.51,7.51,0,0,1-5.26-3.06l-7.26-9,2.94-2.39,6.64,8.2c1.3,1.6,2.16,2.17,3.52,2.32A4.61,4.61,0,0,0,116.84,67.54Zm15.84-21.21.86,4.31,8.62-1.77.7,3.48-8.62,1.76.38,1.81c.4,2,1.19,2.36,3,2l6.93-1.41.72,3.52-7.14,1.46c-3.31.67-6.3-.27-7.13-4.4L128.52,45a1.36,1.36,0,0,1,1.12-1.7l11.73-2.39.72,3.52Zm25.57,14.91-2.31-.6a1.33,1.33,0,0,1-1-1.75l3.12-12c1.07-4.07,4.09-4.84,7.36-4l7,1.85-.91,3.48-6.83-1.8c-1.77-.47-2.58-.17-3.11,1.81l-.46,1.8,8.51,2.23-.89,3.42-8.51-2.24Zm71.37,101h.9c.62,0,1.19,0,1.19-.8,0-.61-.55-.72-1.08-.72h-1Zm0,.63v2.14h-.73v-4.92h1.86c1.16,0,1.73.43,1.73,1.4a1.27,1.27,0,0,1-1.26,1.35l1.38,2.17h-.83l-1.29-2.14Zm-2.56-.34a3.46,3.46,0,1,0,3.46-3.54A3.44,3.44,0,0,0,227.06,162.57Zm3.46,4.28a4.27,4.27,0,1,1,4.31-4.28A4.26,4.26,0,0,1,230.52,166.85Zm-23.1-30.61v18.5c0,1-.43,1.46-1.64,1.51v1h18.79c0-2,.11-3.86.43-6.78h-1.18c-.6,3-1.21,3.64-3.13,3.64h-8v-7.53h4.73c1.6,0,1.85.54,2.07,1.82h1c-.1-.85-.2-2.43-.2-3.39s.1-2.5.2-3.4h-1c-.22,1.28-.47,1.82-2.07,1.82h-4.73v-6.78h7.61c1.92,0,2.42.67,2.78,2.64h1c-.18-1.93-.26-3.52-.29-5.49h-18v1C207,134.78,207.42,135.25,207.42,136.24Zm-28.81-.11v13.34c0,6.11,3.42,8.23,9.82,8.23s9.83-2.11,9.83-8.72V136.13c0-1,.42-1.46,1.64-1.49v-1c-1.15.11-2.6.21-4.09.21-1.86,0-3.32-.11-4.74-.21v1c1.53.06,1.93.35,1.93,1.74v13.35c0,4-1.67,4.83-4.56,4.83s-4.55-.79-4.55-4.83V136.38c0-1.39.38-1.68,1.92-1.74v-1c-1.43.11-2.88.21-4.73.21-1.5,0-3-.11-4.1-.21v1C178.18,134.67,178.61,135.13,178.61,136.13Zm-14.09,12.75v2.56c0,1.64-1.38,2.82-3.91,2.82-4.13,0-6.62-5-6.62-9.43,0-4.6,2.42-8.41,7.37-8.41,2.95,0,6,1.58,6.41,4.75h1c-.14-2.45-.22-4.48-.22-6.22a13.6,13.6,0,0,0-7-1.66c-7.68,0-12.85,4.69-12.85,12.44,0,6.43,4.28,12,11,12a9.82,9.82,0,0,0,7-2.86l.82,2.39h2.06v-8c0-1.61.64-1.93,1.89-2v-1.11c-1.6.1-3.17.22-4.77.22s-2.95-.12-4.41-.22v1.19C163.88,147.37,164.52,147.45,164.52,148.88ZM135.81,147h-5c.93-2.53,2.07-5.35,2.89-8.19h.07A67.46,67.46,0,0,0,135.81,147Zm-13.63,9.28v1c1.25-.11,2.46-.22,3.7-.22s2.46.11,3.67.22v-1c-1.18-.07-1.67-.5-1.67-1.14a3.86,3.86,0,0,1,.29-1.25l1.57-4.2h6.93l1.14,3.46a5.65,5.65,0,0,1,.37,1.78c0,.82-.47,1.1-1.78,1.35v1c1.52-.11,3.06-.22,4.59-.22s3,.11,4.52.22v-1c-1.07-.28-1.6-.75-2.15-2.31l-6.53-20.31c-1.11.11-2.25.21-3.34.21s-2.21-.11-3.35-.21v1c1,0,1.35.58,1.35.93a4.84,4.84,0,0,1-.45,1.4l-7,17.69A2.2,2.2,0,0,1,122.18,156.25Zm-21.84-20v18.5c0,1-.43,1.46-1.64,1.51v1h18.8a66.54,66.54,0,0,1,.43-6.78h-1.18c-.6,3-1.21,3.64-3.13,3.64h-8v-7.42h4.72c1.61,0,1.86.54,2.07,1.82h1c-.1-.85-.21-2.44-.21-3.39s.11-2.51.21-3.4h-1c-.21,1.28-.46,1.82-2.07,1.82h-4.72v-6.89h7.61c1.92,0,2.42.67,2.77,2.64h1c-.17-1.93-.24-3.52-.28-5.49h-18v1C99.92,134.78,100.34,135.25,100.34,136.24Zm-22.64-.11v18.62c0,1-.43,1.46-1.63,1.51v1H93.76a41.24,41.24,0,0,1,.85-6.94H93.46c-.6,2.72-1.56,3.79-3.91,3.79H83V136.59c0-1,.25-1.89,2.06-2v-1c-1,.11-3.19.21-4.7.21-1.31,0-2.7-.11-4.26-.21v1C77.27,134.67,77.7,135.13,77.7,136.13ZM27.82,117.71l.59-5.74a17,17,0,0,1-9.7,3.88c-6.71,0-11.5-6.6-11.5-12.42,0-7.74,4.48-12.33,10.28-12.33,4.27,0,7.24,2.27,8.06,6.56h1.33c-.25-3.36-.44-6.74-.44-10.25a24.51,24.51,0,0,0-8.33-1.25C6.2,86.16,0,94.81,0,103.79c0,8.77,6.2,17.32,17.19,17.32A18.78,18.78,0,0,0,27.82,117.71Zm81.35-21.3-1,19.33c-.09,1.94-.83,2.35-2.62,2.51v1.15c1.42-.14,3.13-.28,4.83-.28s3.46.14,5.3.28v-1.15c-2.77-.33-3-.83-3-3.15,0-1.25.1-2.49.14-4.9l.37-13.56h.09l8.8,23h3.87l7.7-22.73h.09l1.06,13.79c.14,1.52.28,3.61.28,4.72,0,2.12-.6,2.54-2.86,2.82v1.15c1.89-.14,3.88-.28,5.9-.28s4,.14,6,.28v-1.15c-.93-.15-2.26-.33-2.35-1.53L140.27,97c-.14-1.57-.32-3.65-.32-4.94s.23-1.76,1.84-1.9V88.92c-1.57.14-3.18.28-4.8.28s-3.17-.14-4.79-.28L125,110.36l-8-21.44c-1.67.14-3.33.28-5,.28s-3.32-.14-4.7-.28v1.21c1.75.23,2.07.41,2.07,1.84C109.31,93.83,109.22,95.12,109.17,96.41Zm-39.47,23v-1.15a2.81,2.81,0,0,0,2.39-2.14l9-23a6.59,6.59,0,0,0,.6-1.8c0-.47-.51-1.21-1.75-1.21V88.92c1.48.14,2.9.28,4.33.28s2.9-.14,4.33-.28l8.48,26.32c.7,2,1.39,2.64,2.77,3v1.15c-1.93-.14-3.91-.28-5.85-.28s-4,.14-5.94.28v-1.15c1.71-.33,2.31-.7,2.31-1.77a8,8,0,0,0-.47-2.31l-1.46-4.48h-9l-2,5.46a4.69,4.69,0,0,0-.37,1.61c0,.83.64,1.39,2.17,1.49v1.15c-1.57-.14-3.18-.28-4.74-.28S71.31,119.27,69.7,119.41Zm11.14-13.24h6.5a87,87,0,0,1-2.68-10.64h-.09C83.51,99.23,82,102.89,80.84,106.17ZM36.89,92.07v24.24c0,1.28-.55,1.89-2.13,1.94v1.18c2-.13,3.83-.27,5.53-.27s3.5.14,5.52.27v-1.18c-1.57,0-2.12-.65-2.12-1.94V105.66H54.85v10.65c0,1.28-.55,1.89-2.12,1.94v1.17c2-.13,3.83-.27,5.53-.27s3.5.14,5.53.27v-1.17c-1.56,0-2.12-.66-2.12-1.94V92.07c0-1.31.56-1.91,2.12-1.94V88.92c-2,.14-3.83.28-5.53.28s-3.5-.14-5.53-.28v1.21c1.57,0,2.12.64,2.12,1.94v9.15H43.7V92.07c0-1.31.56-1.91,2.12-1.94V88.92c-2,.14-3.82.28-5.53.27s-3.5-.13-5.52-.27v1.21C36.33,90.17,36.89,90.77,36.89,92.07Zm239.56,16.82h-1.16c.23,2.76.38,6,.38,9.81A31.47,31.47,0,0,0,286,120.41c7.74,0,14-3.34,14-9.62s-4.46-8-9.25-9.33l-5-1.43c-1.95-.58-4.23-1.34-4.23-4,0-3.28,4-4,6.36-4,4.26,0,7.82,2,8.82,6.44h1.19c-.2-2.48-.38-5.39-.38-8.82a26.25,26.25,0,0,0-8.82-1.52c-7.07,0-14.19,2.24-14.19,9.61,0,5.63,4.83,7.68,9.68,9.1l3.36,1c2.19.67,5.13,1.42,5.13,4.27,0,3.58-4,4.38-6.82,4.38C280.8,116.51,277.4,114.08,276.45,108.89ZM240.58,92.05v24.23c0,1.3-.56,1.9-2.12,1.94v1.16c1.47-.13,3-.28,4.52-.28s2.9.15,4.42.28v-1.16c-1.25,0-2.76-.18-2.76-2.59V95.52h.09L260,119.41h4.88V92.05c0-1.3.55-1.9,2.12-1.94V88.9c-1.48.14-3,.28-4.51.28s-2.91-.14-4.42-.28v1.21c1.24,0,2.75.19,2.75,2.58v16.89h-.09L248,88.89a20.65,20.65,0,0,1-4,.28c-1.71,0-3.51-.13-5.53-.28V90.1C240,90.15,240.58,90.75,240.58,92.05Zm-55.48,0v24.24c0,1.28-.55,1.89-2.12,1.94v1.15c2-.14,3.83-.28,5.53-.28s3.51.14,5.53.28v-1.15c-1.56,0-2.11-.66-2.11-1.94V92.07c0-1.31.55-1.89,2.11-1.94V88.92c-2,.14-3.82.28-5.53.28s-3.5-.14-5.53-.28v1.21C184.55,90.18,185.1,90.77,185.1,92.07Zm-25.21,23.4v-22l2.86-.3c4.05,0,6.63,1.48,6.63,5.65,0,3.83-1.88,6.56-6.71,6.56-.61,0-1.2-.14-1.62-.14s-.69,0-.69.42c0,1,3.32,2.12,5.57,2.12,5.94,0,10.27-3.51,10.28-9.24,0-5.37-3.1-9.44-11.62-9.44H151V90.4c1.57,0,2.12.65,2.12,1.95V115c0,2.17-.33,3-2.12,3.29v1.15c2-.14,3.82-.28,5.52-.28s3.51.14,6.42.28v-1.15C160.21,117.74,159.89,117.14,159.89,115.47ZM215.54,93c6.91,0,9,7.86,9,13.22,0,5-2.73,9.26-7.43,9.26-6.59,0-9-7.91-9-13.33C208.12,98.41,209.83,93,215.54,93Zm.51,26.91c8.25,0,15.29-5.86,15.29-15.62,0-8.24-5.66-15.72-15.06-15.72-8.48,0-15,6.38-15,15.16C201.31,112.14,206.88,119.86,216.05,119.86Z"/></svg>