<svg id="Layer_1" data-name="Layer 1" xmlns="http://www.w3.org/2000/svg" viewBox="0 0 300 200"><defs><style>.cls-1{fill:#fff;}.cls-1,.cls-2,.cls-3,.cls-4{fill-rule:evenodd;}.cls-2{fill:#ae9654;}.cls-3{fill:#ae9653;}.cls-4{fill:#af9755;}</style></defs><g id="Document"><g id="Spread"><g id="Layer_1-2" data-name="Layer 1"><g id="Group"><g id="Group_1" data-name="Group 1"><path class="cls-1" d="M22.66,88.23,38.62,73l47.3-45.21A10.13,10.13,0,0,1,90,25a6.47,6.47,0,0,1,7.35,2.57,6,6,0,0,1-1.06,7.84c-5.19,5.07-10.41,10.07-15.67,15.08L22.36,106.4l-1.43,1.43A6.47,6.47,0,0,1,13.57,109a6.19,6.19,0,0,1-3.68-6.29q.22-19.64.41-39.28v-32a6.33,6.33,0,1,1,12.5,0q0,26.6-.4,53.19Z"/><path class="cls-1" d="M137.27,87.79l12.8-12.22,50.18-47.81a8.31,8.31,0,0,1,5.18-3,6,6,0,0,1,6.29,3.24,5.81,5.81,0,0,1-1.06,7.36c-2.32,2.39-4.79,4.67-7.18,7L136.94,106c-.66.62-1.32,1.28-2.06,1.87a6.3,6.3,0,0,1-7.35,1,6.18,6.18,0,0,1-3.5-6.14c0-11.33.22-22.66.33-34l.22-37.6a6.34,6.34,0,0,1,6-7,6.14,6.14,0,0,1,6.4,6.81V85.76A1.72,1.72,0,0,0,137.27,87.79Z"/><path class="cls-2" d="M121.82,135.75v37.56c0,3.2-1.61,5.15-4.15,5.18s-4.16-1.84-4.12-5.15q0-23.13.18-46.2c0-2.24.3-4.3,2.72-5.33s4.23.29,5.85,2c6.07,6.25,12.21,12.47,18.39,18.83,1.33,1.43,2.06,1.36,3.43,0,6-6.18,12.17-12.21,18.39-18.39,1.72-1.73,3.67-3.09,6.14-2s2.57,3.39,2.54,5.67c0,15.3-.26,30.64-.44,45.94,0,3.31-1.51,5-4.31,4.93a4.35,4.35,0,0,1-4.56-4.75c0-11,.26-21.7.37-32.55v-4.6c-1.29,0-1.8,1.07-2.43,1.73-4.45,4.49-8.83,9-13.28,13.5-3.34,3.38-5.55,3.35-9,0q-6.73-6.84-13.39-13.76A8.13,8.13,0,0,0,121.82,135.75Z"/><path class="cls-2" d="M238.87,164.41V127.58c0-3.27,1.62-5.14,4.23-5.11s4.12,1.88,4.08,5.15c0,15.3,0,30.64-.37,45.94,0,2.32,0,4.64-2.61,5.6s-4.34-.52-6.07-2.29Q219.74,158,201.35,139.21c-.67-.78-1.29-1.59-1.88-2.43l-1.14.37v37.48a4.23,4.23,0,0,1-2.28,4.16,4.08,4.08,0,0,1-4.45-.45,4.15,4.15,0,0,1-1.62-3.67l.37-48.45a4,4,0,0,1,2.54-3.67,4.3,4.3,0,0,1,5.08,1.17l14.23,14.72L237.07,164A1.68,1.68,0,0,0,238.87,164.41Z"/><path class="cls-3" d="M299.71,162.12a10.58,10.58,0,0,0,0,2.25c1.06,6.1-2.39,9.53-7.36,12.06a28.1,28.1,0,0,1-31.93-2.06A27.27,27.27,0,0,1,249.64,145a29,29,0,0,1,47.82-14.72c2.5,2.32,2.76,4.53,1,6.51s-4.27,1.95-6.81-.33a20.56,20.56,0,0,0-34.09,15.34,19.47,19.47,0,0,0,11,17.73,20.13,20.13,0,0,0,20.67-.74,3.89,3.89,0,0,0,2.25-4,83.19,83.19,0,0,1,0-8.65c0-3.09,1.65-4.74,4.3-4.71s4,1.69,4,4.9v5.84Z"/><path class="cls-3" d="M50.69,160.4a10.48,10.48,0,0,0,0,1.94c1.06,5.93-2.17,9.27-6.88,12a29.42,29.42,0,0,1-32.22-1.81A29,29,0,0,1,.92,142.11a28.5,28.5,0,0,1,23.69-21.44A27.86,27.86,0,0,1,48.92,128c2.46,2.31,2.65,4.59.74,6.51a4.52,4.52,0,0,1-6.62-.41,20,20,0,0,0-22.44-3.68A19.9,19.9,0,0,0,8.39,149.73a19.32,19.32,0,0,0,11,17.76,20.16,20.16,0,0,0,20.86-.8A3.69,3.69,0,0,0,42.37,163c0-3.24,0-6.48.26-9.71a3.71,3.71,0,0,1,1.19-2.73,3.67,3.67,0,0,1,2.82-.95,3.93,3.93,0,0,1,4.08,4v7Z"/><path class="cls-1" d="M116.79,67.37v34.5a15.27,15.27,0,0,1-.37,3.87,5.91,5.91,0,0,1-6,4.45,6,6,0,0,1-5.74-4.79,24.46,24.46,0,0,1,0-6.62q.21-33.36.51-66.79a6.33,6.33,0,0,1,5.26-7,6.18,6.18,0,0,1,7.36,6.73c0,8.72-.19,17.44-.26,26.15V67.3Z"/><path class="cls-2" d="M185,146.93v27c0,3.45-1.4,5-4.16,5s-4.27-1.84-4.27-5.15c.48-15.56.22-31.16.41-46.72,0-3.2,1.69-5.11,4.27-5.07s4.08,1.91,4.08,5.22v19.75Z"/><path class="cls-3" d="M250.49,19.55A49.55,49.55,0,1,0,300,69.06,49.54,49.54,0,0,0,250.49,19.55Zm-1.58,66.21v18.65c0,3.68-1.66,4.45-4.78,2.69-8.54-4.86-17-9.82-25.75-14.72a9.52,9.52,0,0,1-5-9.08V51.59c0-3.93,1.5-4.89,5-3.2l27.18,13.43A5.78,5.78,0,0,1,249,67.59C248.87,73.62,248.91,79.66,248.91,85.76Zm-2-27c-8.86-4.41-17.8-8.68-26.7-13-1-.48-2.32-.77-2.36-2.1s1.33-1.62,2.32-2l25-10.08a14.25,14.25,0,0,1,10.81,0l25.23,10c.89.33,2.14.44,2.25,1.73s-1.25,1.66-2.21,2.13c-9,4.46-18,8.8-26.92,13.25a7.66,7.66,0,0,1-7.4,0ZM283,91.91c-8.61,4.89-17.18,9.85-25.75,14.71-3.68,2.1-5.37,1.14-5.41-3.06V68.22a6.92,6.92,0,0,1,4.38-7c8.68-4.16,17.29-8.5,25.75-12.77,3.68-1.8,5.33-.8,5.33,3.43V84.14A8,8,0,0,1,283,92Z"/><path class="cls-2" d="M108,127c0-2.13,0-4.12-2.39-5.15a4.86,4.86,0,0,0-5.78,1.47L51,170.14c-2.47,2.36-2.76,4.64-1,6.51s4.38,1.84,6.84-.51l14.72-14a3.9,3.9,0,0,1,2.9-1.29H97.07c1.65,0,2.28.44,2.17,2.21-.18,3.42,0,6.88,0,10.3s1.58,4.78,4.23,4.74,4-1.54,4-4.81v-23.4H108Q107.92,138.54,108,127ZM99,152.71c-1.55,1.58-4.75.4-7.36.48H81.11L99.5,135.64v9.82c-.15,2.36,1.06,5.56-.48,7.14Z"/><path class="cls-4" d="M265.72,90.14a11.14,11.14,0,0,1-1.36,5.33c-.66,1.29-1.55,2.5-3.17,2.28s-2-1.43-2.39-2.76a10.51,10.51,0,0,1,.92-8c.59-1.29,1.51-2.47,3.13-2.28s2.06,1.47,2.43,2.75A22.5,22.5,0,0,1,265.72,90.14Z"/><path class="cls-4" d="M282.9,60.31a11,11,0,0,1-1.77,6.62c-1.58,2.32-3.68,2.13-4.82-.44a10.15,10.15,0,0,1,.67-8.87,3.12,3.12,0,0,1,3-2.09c1.58,0,2.1,1.32,2.46,2.61A19.88,19.88,0,0,1,282.9,60.31Z"/><path class="cls-4" d="M275.14,75.87a9.38,9.38,0,0,1-2,6.58c-1.58,1.88-3.68,1.51-4.52-.84a10,10,0,0,1,1.18-9.53c1.5-2.32,3.67-2,4.81.62A7.67,7.67,0,0,1,275.14,75.87Z"/><path class="cls-4" d="M235.45,70.75c0-2.24,0-5,2.68-5.44s3.68,2.39,4.16,4.64a9.46,9.46,0,0,1,0,6c-.44,1.18-1.1,2.29-2.47,2.36a3,3,0,0,1-2.65-1.73A10.58,10.58,0,0,1,235.45,70.75Z"/><path class="cls-4" d="M242.8,93.41c0,1.81,0,4.64-2.72,5s-3.42-2.5-4.08-4.75a8.6,8.6,0,0,1,.48-6.47,2.33,2.33,0,0,1,1.92-1.64,2.36,2.36,0,0,1,2.31,1A9.27,9.27,0,0,1,242.8,93.41Z"/><path class="cls-4" d="M226.07,86.09a3.54,3.54,0,0,1,0,.92c-.33,1.36-.7,2.8-2.36,3.09s-2.5-1-3.09-2.31a9.44,9.44,0,0,1-.48-8c1-2.36,2.91-2.54,4.46-.44A10,10,0,0,1,226.07,86.09Z"/><path class="cls-4" d="M219.26,62.88c0-2,0-4.59,2.43-5S225,60,225.59,62a8.64,8.64,0,0,1,0,5.18c-.37,1.22-.88,2.43-2.25,2.58s-2.31-.92-3-2.1A9.5,9.5,0,0,1,219.26,62.88Z"/><path class="cls-2" d="M251.45,38.24a8.91,8.91,0,0,1,5.88,1.84,3.67,3.67,0,0,1,0,6.1,11.47,11.47,0,0,1-12.95,0,3.69,3.69,0,0,1,0-5.92A10.29,10.29,0,0,1,251.45,38.24Z"/></g></g></g></g></g></svg>