<svg id="Layer_1" data-name="Layer 1" xmlns="http://www.w3.org/2000/svg" xmlns:xlink="http://www.w3.org/1999/xlink" viewBox="0 0 300 200"><defs><style>.cls-1{fill:none;}.cls-2{clip-path:url(#clip-path);}.cls-3{fill:url(#linear-gradient);}.cls-4{clip-path:url(#clip-path-2);}.cls-5{fill:url(#linear-gradient-2);}.cls-6{clip-path:url(#clip-path-3);}.cls-7{fill:url(#linear-gradient-3);}.cls-8{fill:#fcc800;}.cls-9{fill:#e60021;}.cls-10{fill:#008fd3;}</style><clipPath id="clip-path"><path class="cls-1" d="M34.17,68.78a69.06,69.06,0,0,0,1.24,24.65A45.27,45.27,0,0,1,42.11,75a55.12,55.12,0,0,1,38-23.44c19.14-2.43,33.25,1.86,50.23,10.21-10-7.2-19.74-13.39-38-16.27A86.57,86.57,0,0,0,78.66,44.4c-21.5,0-38.71,8.72-44.5,24.3"/></clipPath><linearGradient id="linear-gradient" x1="-224.61" y1="218.62" x2="-222.39" y2="218.62" gradientTransform="matrix(-44.16, 0, 0, 44.16, -9787.79, -9585.15)" gradientUnits="userSpaceOnUse"><stop offset="0" stop-color="#db8900"/><stop offset="0.19" stop-color="#e29400"/><stop offset="0.69" stop-color="#f2ac00"/><stop offset="1" stop-color="#f8b500"/></linearGradient><clipPath id="clip-path-2"><path class="cls-1" d="M16,52.52A42.75,42.75,0,0,0,5.7,82.93,46.58,46.58,0,0,0,10.16,99C6.32,98.27,1,89.6,1,89.6a89.29,89.29,0,0,0-1,9.11s3.45,43.78,48.36,42.53a29.34,29.34,0,0,0,9-2c-8-3.93-14.78-13.26-17.2-16.84C34.56,114,15.65,82.46,37.37,40A37.46,37.46,0,0,0,16,52.52"/></clipPath><linearGradient id="linear-gradient-2" x1="-208.01" y1="226.56" x2="-205.77" y2="226.56" gradientTransform="matrix(0, -45.15, -45.15, 0, 10258.01, -9245.54)" gradientUnits="userSpaceOnUse"><stop offset="0" stop-color="#a4000e"/><stop offset="0.27" stop-color="#b60014"/><stop offset="0.72" stop-color="#ce001b"/><stop offset="1" stop-color="#d7001e"/></linearGradient><clipPath id="clip-path-3"><path class="cls-1" d="M123.58,66.91h0m0,0h0m0,0h0m0,0h0m0,0h0m-12.75-2.13h-.3c10,8.1,15.93,22.32,16.19,32.77.47,19.88-11.85,37.26-23.44,45.78C66.88,170,31.51,155.81,31.51,155.81A63.8,63.8,0,0,0,65,178.43c24.92,6.46,58.24-1.47,66.11-29.19,2,3.57.49,13.23.49,13.23s14.48-10.9,21.43-26.79a51.19,51.19,0,0,0,2.7-34.75C152.13,87.54,138.19,75,127.51,68.8a42.64,42.64,0,0,0-3.78-2h-.25a35.69,35.69,0,0,0-11.44-2h-1.21"/></clipPath><linearGradient id="linear-gradient-3" x1="-229.39" y1="235.21" x2="-227.17" y2="235.21" gradientTransform="matrix(0, 51.78, 51.78, 0, -12083.83, 11941.52)" gradientUnits="userSpaceOnUse"><stop offset="0" stop-color="#005b88"/><stop offset="0.38" stop-color="#0070a6"/><stop offset="0.76" stop-color="#0081be"/><stop offset="1" stop-color="#0087c7"/></linearGradient></defs><g class="cls-2"><rect class="cls-3" x="32.98" y="44.48" width="97.31" height="48.95"/></g><g class="cls-4"><rect class="cls-5" x="0.06" y="39.96" width="57.39" height="102.53"/></g><g class="cls-6"><rect class="cls-7" x="31.44" y="64.78" width="127.7" height="120.22"/></g><path class="cls-8" d="M57.25,27.32C79,12.47,106.56,23.2,106.56,23.2s-10.75,4.86-10.87,7.57a63.5,63.5,0,0,1,14.2-1.68c16.6.66,32.63,14.71,40.19,31.54a45.38,45.38,0,0,1,3.45,23.91,88.47,88.47,0,0,0-18.62-19.33C123,56.61,113.31,49,92.28,45.59,64.65,41.2,41.09,50,34.17,68.78c3-24.55,14.89-35.82,23.08-41.46"/><path class="cls-9" d="M75.57,86.92A42.87,42.87,0,0,1,83.4,84c-6.8-7.7-16.93-13.31-26.5-11.72a12.71,12.71,0,0,0-10,6.45c5.74-.91,14.32,1.91,18.89,5.57,17.33,13.89,16.06,39-.19,50.79a34.85,34.85,0,0,1-17.11,6.17C3.51,142.5.06,98.71.06,98.71s-3.25,41.42,37.46,53c19,5.42,41.16-1,51-17.43,6.33-10.59,6.49-22.54,2.84-34.57-2.59-7.88-7.08-9.42-15.69-12.77"/><path class="cls-10" d="M118.79,93.73A37.36,37.36,0,0,1,111,84.87c-4.56-7-10-18.8-.14-20A33.83,33.83,0,0,1,123.74,67a72.54,72.54,0,0,0-18.42-6.18c-3-.5-7.26-1-10,.15-4.29,1.78-2.71,7.54-1.67,11.31a20.7,20.7,0,0,0,2.52,5.88c1.53,2.57,5.43,5.66,12.3,8.57a41.24,41.24,0,0,1-7.09,2.36,52.86,52.86,0,0,0,9.18,10.67c7,6.13,9.63,6.31,9.63,6.31a31.41,31.41,0,0,0,.5-8.27,5.94,5.94,0,0,0-1.94-4.07"/><path class="cls-10" d="M220.55,90.7H209.46c-7.85,10.4-14.45,17.23-16.89,19,2,.93,6.7,7.92,12.09,21.27h11.22c-5.33-13.4-10-20.46-11.62-21.77a161.75,161.75,0,0,0,16.29-18.5"/><path class="cls-10" d="M182.17,90.7c1.1,1.84,3.35,2.21,3,5.18l-5,35.16h9.31l5.78-40.29Z"/><path class="cls-10" d="M246.55,102.44c-.4,2.78-1.37,3.82-3.16,3.82h-11l1.11-7.64h11c1.78,0,2.45,1,2.06,3.82m-1.67,16.18c-.45,3.13-1.67,4.45-3.6,4.45H230l1.32-9.24h11c2.08,0,3,1.5,2.5,4.79m12-18.26c.9-6.31-.64-9.66-8.68-9.66H221.57c1.12,1.84,3.35,2.21,3,5.18l-5,35.16h23c6.54,0,11-2.76,12.2-10.87.91-6.29-.55-10.33-4.3-10.33,3.47,0,5.59-3.83,6.4-9.43"/><path class="cls-10" d="M289.56,110.61c1.57-11,.25-12.26-7.91-12.26s-9.83,1.28-11.4,12.26-.34,12.78,7.8,12.78,9.9-1.68,11.51-12.78m9.94-.12c-2.37,16.6-9.76,21.41-22.65,21.41s-18.93-4.81-16.53-21.41,9.61-20.59,22.56-20.59,19,4.32,16.62,20.68"/></svg>