<svg id="Layer_1" data-name="Layer 1" xmlns="http://www.w3.org/2000/svg" viewBox="0 0 300 200"><defs><style>.cls-1{fill:#fff;}.cls-2{fill:#bf0d3e;}.cls-3{fill:#041e42;}</style></defs><path class="cls-1" d="M275,19.13H25A25.19,25.19,0,0,0,7.28,26.35,24.94,24.94,0,0,0,0,44.19V155.76a24.78,24.78,0,0,0,7.26,17.78A25.09,25.09,0,0,0,25,180.87H275a25.09,25.09,0,0,0,25-25.11V44.17a24.86,24.86,0,0,0-24.66-25H275Z"/><path class="cls-2" d="M291.22,44.17a16.07,16.07,0,0,0-15.88-16.25H205.15l40.1,67,3.7.47,2.34,3.06v2.86l2.53.52,2.34,3.18v2.77l2.62.46,2.65,2.88v6.37a43.1,43.1,0,0,0,10.54,7c3.53,1.36,3.93,7,6.06,10,2.67,4.4,6.33,6.16,5.55,8.61-1.78,6.59-8.52,17.69-14.8,18.2H244V172h31.1a16.24,16.24,0,0,0,16.18-16.32V44.17"/><path class="cls-3" d="M120.26,161.55h-12c0-30,10.14-46.63,22.3-49.93,1.66-.31.87-8.51-1.24-11h-7c-1.12,0-.47-2.11-.47-2.11l5.69-12.15L126.72,83h-21L123,70.94c.8-31.88,33.49-34.36,53.19-21.08,11.71,7.75,12.6,23.11,11.71,33.72-.14.68-3.05.24-3.05.24s-2,11.71,3.21,11.71h23c9.36-.38,18.4,6,18.4,6l2.21-8L181.29,27.92H25A16,16,0,0,0,8.76,44.17V155.76a16,16,0,0,0,4.68,11.52A16.37,16.37,0,0,0,25,172.08H126.46c-2.48-4.26-5.31-9.11-6.18-10.53"/><path class="cls-1" d="M31.29,137.87A11.1,11.1,0,1,1,42.39,149H42.3a11,11,0,0,1-11-11h0v-.14"/></svg>