<svg id="Layer_1" data-name="Layer 1" xmlns="http://www.w3.org/2000/svg" viewBox="0 0 300 200"><defs><style>.cls-1{fill:#3d195b;}</style></defs><path id="path44" class="cls-1" d="M231,121.11l.82-3.5h6.69V144c0,5.15-1.44,8.75-4.84,11.42a16.83,16.83,0,0,1-10.28,3.4,17.87,17.87,0,0,1-13.17-5.15l4.22-5.86a12.15,12.15,0,0,0,8.43,3.7c5.66,0,8.13-2.78,8.13-6.89v-2A10.4,10.4,0,0,1,223,145.9c-7.82,0-14-6.38-14-14.5a14.09,14.09,0,0,1,14.19-14.2,9.4,9.4,0,0,1,7.72,3.91m-6.79,3a7.25,7.25,0,1,0,7.2,7.3,7.11,7.11,0,0,0-7.2-7.3M180.65,78.31c-3.19,0-5.87,1.85-6.48,4.83h12.75a6.21,6.21,0,0,0-6.27-4.83m.41,22.33c-8.54,0-14.82-5.87-14.82-14.41a14.27,14.27,0,0,1,14.61-14.61c6.69,0,13.59,5,13.59,14.4a12.94,12.94,0,0,1-.21,2.68H174.06a6.82,6.82,0,0,0,6.9,5.15,9.73,9.73,0,0,0,7.41-3.2L193,95.39a15.77,15.77,0,0,1-11.94,5.25m85.5-22.33c-3.19,0-5.86,1.85-6.48,4.83h12.75a6.22,6.22,0,0,0-6.27-4.83m.41,22.33c-8.54,0-14.81-5.87-14.81-14.41a14.27,14.27,0,0,1,14.61-14.61c6.68,0,13.58,5,13.58,14.4a12.94,12.94,0,0,1-.21,2.68H260a6.83,6.83,0,0,0,6.9,5.15,9.73,9.73,0,0,0,7.41-3.2l4.63,4.74A15.77,15.77,0,0,1,267,100.64m19.24,22.94c-3.19,0-5.86,1.85-6.48,4.84h12.76a6.23,6.23,0,0,0-6.28-4.84m.41,22.32c-8.54,0-14.81-5.86-14.81-14.4a14.27,14.27,0,0,1,14.61-14.61c6.68,0,13.58,5,13.58,14.4a12.94,12.94,0,0,1-.21,2.68H279.63a6.81,6.81,0,0,0,6.89,5.14,9.71,9.71,0,0,0,7.41-3.19l4.63,4.74a15.76,15.76,0,0,1-11.94,5.24M160.07,123.58c-3.19,0-5.86,1.85-6.48,4.84h12.75a6.21,6.21,0,0,0-6.27-4.84m.41,22.32c-8.54,0-14.81-5.86-14.81-14.4a14.27,14.27,0,0,1,14.6-14.61c6.69,0,13.59,5,13.59,14.4a12.94,12.94,0,0,1-.21,2.68H153.48a6.81,6.81,0,0,0,6.9,5.14,9.73,9.73,0,0,0,7.41-3.19l4.63,4.74a15.76,15.76,0,0,1-11.94,5.24m-42.28-.71V104.34h8.12v33.13H144v7.72Zm31-45.27V72.34h6.59l.82,4a7.5,7.5,0,0,1,7-4.32,7.67,7.67,0,0,1,2.16.31v7.31a11.67,11.67,0,0,0-2.68-.31c-3.7,0-6.27,2.26-6.27,6.68V99.91h-7.62Zm134.17,0V72.34h6.58l.83,4a7.49,7.49,0,0,1,7-4.32,7.74,7.74,0,0,1,2.17.31v7.31a11.67,11.67,0,0,0-2.68-.31c-3.7,0-6.27,2.26-6.27,6.68V99.91h-7.62ZM230.14,83.66c0-3-1.65-4.84-4.22-4.84-3,0-4.53,1.85-4.53,4.94V99.91h-7.61V83.66c0-3-1.65-4.84-4.22-4.84-3,0-4.53,1.85-4.53,4.94V99.91h-7.61V72.34h6.69l.82,3.6a7.25,7.25,0,0,1,6.79-4.32,8.86,8.86,0,0,1,7.72,4.12l.21.31.2-.31a9,9,0,0,1,8-4.12c5.86,0,9.87,4.43,9.87,10.7v17.6h-7.61V83.66Zm15.33-15A4.69,4.69,0,1,1,250.2,64a4.64,4.64,0,0,1-4.73,4.63m-3.91,3.7h7.61V99.91h-7.61Zm-49.9,51.76a7.25,7.25,0,1,0,7.1,7.3,7,7,0,0,0-7.1-7.3m-1.55,21.8c-7.3,0-13.68-6.68-13.68-14.5s6.38-14.2,13.68-14.2c4.12,0,6.9,1.44,8.54,4l.83-3.6h6.68v27.57h-6.68l-.83-3.5a10.06,10.06,0,0,1-8.54,4.22m65.54,0c-6.07,0-13.47-3.29-13.47-13.58V117.61h7.61v14.2c0,4.73,2.16,6.79,5.86,6.79,3.4,0,5.87-2.37,5.87-6.79v-14.2h7.61v14.71c0,10.29-7.51,13.58-13.48,13.58M126.32,78.41h4.74c4.11,0,7.1-2.26,7.1-6.38s-3-6.27-7.1-6.27h-4.74ZM118.2,99.92V58h13.27c8.64,0,15.12,5.14,15.12,14s-6.38,14.2-15.12,14.2h-5.15V99.92Z"/><path id="path56" class="cls-1" d="M89.08,94.64A35.77,35.77,0,0,1,84,98.16l0,7.18c2,2.15,3.92,3.93,5.38,7.17,2.77-4.86,2.24-12-.31-17.87m-2.24,23.48a13.6,13.6,0,0,0-3-5.72l-5.47.13s-7.38,6.19-11.89,6.34c0,0,2.48,4.5,3.74,6.85,2.48-.53,6.83-2.44,8.59-4.43a25.08,25.08,0,0,1,.94,8c2.47-1.39,5.86-5.17,7.06-11.13m-7.06-13V98A24.93,24.93,0,0,1,73,94.35c-7,1-15.51,7.92-15.51,7.92s2.87,5.31,6,11c5.52.75,13.65-6,16.27-8.15m18.71,29.77L94,130.06c-1.29,13.17-7.91,24.36-20.06,32.16l-1.85-7.1c-10.32,7.27-28,12-43.22,3.59,1.89-9.4,3.56-18.92,0-30.32C20.4,141.11,13,146.09,13,146.09c-5.69-9.31-5.18-28-3.48-33.51L0,115.44c0-6.28,4.63-19.61,11.35-27.1l-5.91-.92h0a54.72,54.72,0,0,1,17.36-20.1h0c-2.21,3.4-2.24,11.78,4.22,15-2.74-4.68-3.07-10.48-.21-13.48s7.68-2,10.75.36C36.65,66.53,34,63.24,30,63h0a56.34,56.34,0,0,1,25.32-6c1.71,0,3.4.08,5.06.22h0c2.65,1,6.54,4.69,8.36,7a13.68,13.68,0,0,0-1.39-5.9c9.87,2.35,14.58,6.27,16.55,8.16.41,4.16,1.68,6.66,3.37,10.61C84,73.61,76,68,72.14,66.62c0,0-.32,3.61-1.64,5.34-7.64-5.37-11.39-6.73-11.39-6.73C50.72,66.4,45.33,69.56,42.4,72L45,74.17a18.5,18.5,0,0,0-8.34,5.75c0,.08,4.52.7,4.52.7s-.46,5.13,6.13,8.35c5.65,2.76,13.76-.66,21.4,2.33a60.54,60.54,0,0,0-8.5-8.19,20.77,20.77,0,0,0-3.4-.39A17.94,17.94,0,0,1,49.52,82a28.85,28.85,0,0,1-4.23-2.21A17.15,17.15,0,0,1,54,75.44a29.76,29.76,0,0,1,8.33,3.94,7.6,7.6,0,0,1,5-2.26s-2.53,2.31-1.77,5.1A94.6,94.6,0,0,1,73.21,90c4.07-2.17,12.91-1.67,14.72.38C85.63,87.47,82.32,85,79.75,83a24.44,24.44,0,0,0-3.58-5.24,15.25,15.25,0,0,1,5,2.88,6.47,6.47,0,0,1,3.7-2.34,5.81,5.81,0,0,1,2,4.09,5.42,5.42,0,0,1-1.6,1.32l4.31,4.55L90.1,85c9.94,13.83,15.35,29.84,8.39,50M20.07,47.37a45.55,45.55,0,0,1,10.07,6.28c-.3-1.44-1.43-8.39-2.08-12.7,3.34,2.26,11.08,7.5,13.63,9.21,1-3.13,4.63-13.32,4.63-13.32s6.51,10.27,7.62,11.94c1.36-1.39,9.12-9.82,11.14-12,.33,4.86.79,11.8.91,12.84a42.75,42.75,0,0,1,8.35-8.33c-2.16,4.15-3.2,9.88-3.65,14.49A58.68,58.68,0,0,0,27.08,61c-1.51-4.45-3.88-10-7-13.64"/></svg>