<svg id="Layer_1" data-name="Layer 1" xmlns="http://www.w3.org/2000/svg" viewBox="0 0 300 200"><defs><style>.cls-1{fill:#f19021;}.cls-2{fill:#fff;}</style></defs><path class="cls-1" d="M258.27,84.8c-14.91.93-8.21,20.34,8.26,19.31C282.65,103.11,274.15,83.81,258.27,84.8Z"/><path class="cls-1" d="M252,72.81a48,48,0,1,0,48,48h0A48,48,0,0,0,252,72.81Zm0,91a43,43,0,1,1,43-43h0A43,43,0,0,1,252,163.82ZM250.53,39.28c-11.4,8.62-9.42,21.84-9.42,21.84s-7.17-18.6-16.47-30c-1.26,14.64,3.33,34,3.33,34s-5.83-12-20.11-12.7c11.85,6.81,16.44,19.07,17.49,22.36a47.74,47.74,0,0,1,23.42-7.09C247.84,64.69,244.52,51.78,250.53,39.28Z"/><path class="cls-2" d="M4.18,125.54v10H0V109.7H8.8q4.48,0,6.73,2.12a7.67,7.67,0,0,1,2.27,5.84,7.42,7.42,0,0,1-2.31,5.77q-2.31,2.11-6.67,2.11Zm9.35-7.88a4.39,4.39,0,0,0-1.23-3.36,5.6,5.6,0,0,0-3.94-1.16H4.18v9H8.36q5.18,0,5.17-4.47Zm21.53,17.93-6.45-10.34h-3v10.34H21.46V109.7h9.13q4.44,0,6.73,2.16a7.45,7.45,0,0,1,2.29,5.72,7.31,7.31,0,0,1-1.7,5A8,8,0,0,1,33,125.06l6.81,10.53Zm-9.42-13.31h4.61q5.07,0,5.06-4.48a4.46,4.46,0,0,0-1.22-3.32,5.38,5.38,0,0,0-3.84-1.19H25.64ZM58.83,130H47.9l-2,5.61H41.45L51,110.1h4.81l9.5,25.49H60.81Zm-1.17-3.23-4.29-12.1-4.3,12.1Zm28.76-15a10.71,10.71,0,0,1,4.07,6.2h-4.4a7,7,0,0,0-2.77-3.34,8.29,8.29,0,0,0-4.57-1.25,8.42,8.42,0,0,0-4.35,1.14,7.76,7.76,0,0,0-3,3.22,10.55,10.55,0,0,0-1.07,4.93,11,11,0,0,0,1.1,5.11,7.75,7.75,0,0,0,3.1,3.24,9.37,9.37,0,0,0,4.64,1.13,8.15,8.15,0,0,0,5.53-2,8.48,8.48,0,0,0,2.79-5.49H78v-3.08H91v4a12.37,12.37,0,0,1-2,5.19,11.54,11.54,0,0,1-4.21,3.73,12.66,12.66,0,0,1-6,1.39,13,13,0,0,1-6.68-1.69,11.51,11.51,0,0,1-4.47-4.68,15.64,15.64,0,0,1,0-13.68,11.54,11.54,0,0,1,4.45-4.66,13.05,13.05,0,0,1,6.66-1.66,12.61,12.61,0,0,1,7.71,2.27Zm34.11-1.65v25.49h-4.22V116.48l-7.37,19.11h-3.67l-7.41-19.11v19.11H93.68V110.1h5.06l8.44,20.36,8.28-20.36ZM141,130H130.08l-2,5.61h-4.49l9.54-25.49H138l9.5,25.49H143Zm-1.17-3.23-4.29-12.1-4.29,12.1Zm25.53-17v3.37h-7.23v22.52H153.9V113.07h-7.18V109.7Zm6.42,0v25.89h-4.18V109.7Zm23.66,2.16a11.81,11.81,0,0,1,4.25,6.57h-4.44a7.93,7.93,0,0,0-2.91-3.73,8.45,8.45,0,0,0-4.9-1.37,7.61,7.61,0,0,0-4.13,1.13,7.86,7.86,0,0,0-2.86,3.24,12.13,12.13,0,0,0,0,9.84,7.79,7.79,0,0,0,2.86,3.24,7.62,7.62,0,0,0,4.13,1.14,8.45,8.45,0,0,0,4.9-1.37,7.89,7.89,0,0,0,2.91-3.69h4.44a11.74,11.74,0,0,1-4.25,6.54,13.88,13.88,0,0,1-14.42.74,11.26,11.26,0,0,1-4.36-4.66,15.91,15.91,0,0,1,0-13.68,11.43,11.43,0,0,1,4.36-4.68,12.45,12.45,0,0,1,6.49-1.69,12.76,12.76,0,0,1,7.93,2.43Zm24,13.68v10h-4.18V109.7H224c3,0,5.23.71,6.73,2.12a7.64,7.64,0,0,1,2.27,5.84,7.42,7.42,0,0,1-2.31,5.77q-2.31,2.11-6.67,2.11Zm9.36-7.88a4.39,4.39,0,0,0-1.23-3.36,5.6,5.6,0,0,0-3.94-1.16h-4.19v9h4.18c3.46,0,5.18-1.49,5.18-4.47Zm11.43,14.67h9v3.26H236V109.7h4.18ZM268.3,130H257.37l-2,5.61h-4.48l9.54-25.49h4.81l9.5,25.49h-4.48Zm-1.17-3.23-4.29-12.1-4.3,12.1Zm24.41-17-8.61,16.46v9.43h-4.21v-9.43l-8.66-16.46h4.85l5.94,12,5.94-12Z"/></svg>