<svg id="Layer_1" data-name="Layer 1" xmlns="http://www.w3.org/2000/svg" viewBox="0 0 300 200"><defs><style>.cls-1{fill:#ff6900;}.cls-2,.cls-3{fill:#fff;}.cls-3{fill-rule:evenodd;}</style></defs><path class="cls-1" d="M112.22,58.39a38,38,0,0,1,15.63-30.71l-2.51-8.55A46.51,46.51,0,0,0,127.65,99l2.91-8.1A38,38,0,0,1,112.22,58.39Zm63-39.23-2.51,8.54A38,38,0,0,1,170,90.93l2.91,8.1a46.5,46.5,0,0,0,2.31-79.87Z"/><path class="cls-2" d="M141.75,92h-5.86l9-25.27-17-57.91L148.58,0V61.37Z"/><path class="cls-2" d="M155,66.73,164.09,92h-5.87l-6.83-30.63V0l20.67,8.82Z"/><path class="cls-2" d="M131.27,104.94l3.1-8.72h31.26l3.1,8.72Z"/><path class="cls-2" d="M150,67.35,155.49,92h-11Z"/><path class="cls-2" d="M85.43,168.45H96.34v-5.27H85.43v-4.79H97.28v-5.27H79.57v25.61h18v-5.26H85.43Z"/><path class="cls-3" d="M160.86,179.3c7.53,0,12.39-5.09,12.39-13.39s-4.86-13.39-12.39-13.39-12.4,5.09-12.4,13.39S153.33,179.3,160.86,179.3Zm0-21.49c3.65,0,6.53,2.64,6.53,8.13s-2.88,8.12-6.53,8.12-6.54-2.63-6.54-8.12S157.21,157.81,160.86,157.81Z"/><path class="cls-3" d="M176.76,178.73h5.84v-8.64h4.17c5,0,9.19-2.93,9.19-8.5s-4.12-8.5-9.19-8.5h-10Zm5.81-20.34h3.88c2.61,0,3.62,1.34,3.62,3.22s-1,3.23-3.62,3.23h-3.88Z"/><path class="cls-2" d="M122.57,153.12h-5.86v15.23c0,3.43-1.77,5.56-5,5.56s-5-2.11-5-5.56V153.12h-5.86v15.55c0,7.13,4.94,10.51,10.83,10.51s10.83-3.4,10.83-10.51Z"/><path class="cls-2" d="M112.21,184.77h-3.4v15h10.51v-3.08h-7.11Z"/><path class="cls-2" d="M189.33,193.74v-3.08H183v-2.81h6.93v-3.08H179.54v15h10.51v-3.08h-7.11v-2.93Z"/><path class="cls-2" d="M174.2,193.66c0,2-1,3.26-2.91,3.26s-2.9-1.24-2.9-3.26v-8.89H165v9.09c0,4.18,2.88,6.14,6.33,6.14s6.34-2,6.34-6.14v-9.09H174.2Z"/><path class="cls-2" d="M160.19,194.39v1.06a4.51,4.51,0,0,1-3.43,1.47c-2.59,0-4.55-1.52-4.55-4.67s2.11-4.67,4.15-4.67a3.36,3.36,0,0,1,3.55,2.56l3.28-1c-.77-2.81-2.95-4.7-6.78-4.7a7.76,7.76,0,0,0,0,15.51,8.24,8.24,0,0,0,6.91-3.31v-5h-7.8v2.74Z"/><path class="cls-3" d="M210,153.12h-6.21l-10.38,25.61h6.63l1.87-4.87h10l1.86,4.87h6.63Zm-6.11,15.48,3-7.88,3,7.88Z"/><path class="cls-3" d="M139.12,184.77l-6.09,15h3.88l1.09-2.83h5.86l1.1,2.83h3.87l-6.06-15Zm0,9,1.76-4.59,1.77,4.59Z"/><path class="cls-2" d="M124.36,193.74h6.39v-3.08h-6.39v-2.81h6.93v-3.08H120.93v15h10.54v-3.08h-7.11Z"/><path class="cls-3" d="M140.39,178.73H147l-5.72-10.28a7.92,7.92,0,0,0,4.43-7.13c0-5-4.05-8.2-9.27-8.2H126.27v25.61h5.87v-9.21h3.15Zm-8.25-20.34h4.39c2.41,0,3.33,1.24,3.33,2.93s-.92,2.93-3.33,2.93h-4.39Z"/><path class="cls-2" d="M129.3,137.42a2.55,2.55,0,0,1-1.86.62c-.74-.08-1.22-.4-2-1.32l-4.35-5.34-2.33,1.91,4.72,5.82a5,5,0,0,0,3.5,2,3.7,3.7,0,0,0,.47,0,5.7,5.7,0,0,0,3.7-1.39,5.56,5.56,0,0,0,2.21-3.8,4.92,4.92,0,0,0-1.26-3.83l-4.72-5.81-2.34,1.91,4.35,5.35a2.76,2.76,0,0,1,.89,2.21A2.8,2.8,0,0,1,129.3,137.42Z"/><path class="cls-2" d="M150,138.56a26.24,26.24,0,0,1,20.22,9.34l1.57-1.91a29,29,0,0,0-43.53,0l1.57,1.91A26,26,0,0,1,150,138.56Z"/><path class="cls-2" d="M118.92,129a48.07,48.07,0,0,1,62.16,0c.9.77,1.74,1.57,2.54,2.39l1.61-2c-.8-.79-1.61-1.56-2.48-2.31a50.62,50.62,0,0,0-65.45,0c-.87.75-1.69,1.52-2.48,2.31l1.61,2A33.34,33.34,0,0,1,118.92,129Z"/><path class="cls-2" d="M177.4,131.16a1.34,1.34,0,0,0-.47-1.64l-.47-.35a1.32,1.32,0,0,0-1.71,0l-10.79,7,2.81,1.59,6.88-4.45-1.19,4-1-.79-1.82,1.29,2.24,1.66-.52,1.79,2.46,2.26Z"/><path class="cls-2" d="M145.3,120.6l-7.57,1.54a1.3,1.3,0,0,0-.8.49,1.2,1.2,0,0,0-.15.92L138.3,131a3.73,3.73,0,0,0,1.61,2.58,3.57,3.57,0,0,0,2,.5,6.66,6.66,0,0,0,1.21-.13l4.75-1-.57-2.8-4.6.94c-.94.2-1.24.1-1.46-1l-.18-.79,5.34-1.1-.57-2.78-5.34,1.09-.4-2,5.82-1.2Z"/><path class="cls-2" d="M160,124.67l4.54,1.17.72-2.76-4.67-1.22c-2.56-.67-4.32.3-4.94,2.71l-1.91,7.36a1.12,1.12,0,0,0,.1.91,1.16,1.16,0,0,0,.77.55l1.74.45,1.21-4.77,5.27,1.36.72-2.73-5.27-1.36.2-.8C158.8,124.5,159.09,124.42,160,124.67Z"/><path class="cls-2" d="M194.89,185.49v3.75h.77v-3.75H197v-.69H193.5v.69Z"/><path class="cls-2" d="M201.16,184.77l-1.37,3.58-1.37-3.58h-.84v4.47h.79v-2.68l1,2.68h.77l1-2.68v2.68h.8v-4.47Z"/></svg>