<svg id="Layer_1" data-name="Layer 1" xmlns="http://www.w3.org/2000/svg" viewBox="0 0 300 200"><defs><style>.cls-1{fill:#fff;}.cls-2{fill:#901480;}.cls-3{fill:red;}.cls-4{fill:#004ad0;}.cls-5{fill:#ff7d00;}.cls-6{fill:#0090ff;}.cls-7{fill:#ffe500;}.cls-8{fill:#0a0;}</style></defs><path class="cls-1" d="M110.31,76.28c3.74,0,7.47,0,11.21,0q0,16.56,0,33.11H135v9.84q-12.34,0-24.7,0c0-14.33,0-28.65,0-43Z"/><path class="cls-1" d="M179.61,76.27c3.73,0,7.46,0,11.19,0q0,16.56,0,33.12c4.5,0,9,0,13.51,0,0,3.28,0,6.55,0,9.83H179.6q0-21.49,0-43Z"/><path class="cls-1" d="M150.27,84.42a14.53,14.53,0,0,1,8.18.6,18.08,18.08,0,0,1,4.79,3.2c0-1.15,0-2.31,0-3.47,3.43,0,6.87,0,10.3,0,0,11.48,0,23,0,34.43-3.5.11-7,0-10.51,0,0-1.07,0-2.14,0-3.21a15,15,0,0,1-10.17,4,15.32,15.32,0,0,1-11.77-4.92c-3-3.42-4.3-8.09-4.32-12.59a19.07,19.07,0,0,1,3.28-11.17,16.32,16.32,0,0,1,10.21-7M153.54,94a7.68,7.68,0,0,0-5.48,4.52c-1.56,3.74-.48,8.72,3,11a8.37,8.37,0,0,0,10.37-1.62,8.8,8.8,0,0,0-.72-12.14A8.22,8.22,0,0,0,153.54,94Z"/><path class="cls-1" d="M229.82,87.16A14.34,14.34,0,0,1,241.2,84.3a13.27,13.27,0,0,1,7.62,4.24c0-1.26,0-2.52,0-3.77,3.32,0,6.65,0,10,0q0,15.41,0,30.81a15.6,15.6,0,0,1-4.1,10.61,18,18,0,0,1-12.23,5.09c-4.62.23-9.47-.76-13.21-3.6a12.55,12.55,0,0,1-5-8.44c3.87,0,7.75,0,11.62,0a7.75,7.75,0,0,0,2.27,2.22,8.62,8.62,0,0,0,4.56.5,6.37,6.37,0,0,0,5-2.9c.85-1.5.48-3.27.58-4.9a15.5,15.5,0,0,1-10.26,3.91,13.82,13.82,0,0,1-9.74-4.2,18,18,0,0,1-4.72-13.24c.14-5.06,2.16-10.26,6.17-13.49m9.78,6a6.92,6.92,0,0,0-5.36,5c-.87,3-.52,6.58,1.67,8.94,2.68,3,7.81,2.72,10.55-.05A8.84,8.84,0,0,0,247,95.59a8,8,0,0,0-7.39-2.39Z"/><path class="cls-1" d="M270.84,86.93A15.65,15.65,0,0,1,283,84.44a15,15,0,0,1,6.61,3.77c0-1.15,0-2.3,0-3.44,3.46,0,6.93,0,10.39,0v34.45c-3.51,0-7,0-10.52,0,0-1.07,0-2.14,0-3.21a16.92,16.92,0,0,1-3.79,2.58,16,16,0,0,1-11.85.64,14.53,14.53,0,0,1-8.22-6.78,21.6,21.6,0,0,1-2.32-12.34,18.44,18.44,0,0,1,7.55-13.19m9,7.12a7.74,7.74,0,0,0-5.77,5.8c-.8,3.44.3,7.51,3.32,9.56a8.37,8.37,0,0,0,10.93-2,8.88,8.88,0,0,0-.92-11.49,8.26,8.26,0,0,0-7.56-1.87Z"/><path class="cls-1" d="M212.46,69.94a6.38,6.38,0,0,1,7.64,4,6.41,6.41,0,0,1-8.74,7.9,6.4,6.4,0,0,1,1.1-11.87Zm-3.61,14.83c3.46,0,6.92,0,10.39,0v34.48c-3.47,0-6.93,0-10.39,0Q208.87,102,208.85,84.77Z"/><path class="cls-1" d="M34.52,92.15a15.28,15.28,0,0,1,7.38-5.37l-1.24,1.31a10,10,0,0,1,5.14.64c.18,1.54.33,3.09.55,4.63A39.81,39.81,0,0,0,47,88.72a10.25,10.25,0,0,1,5.17-.63c-.44-.45-.9-.89-1.35-1.33a14.55,14.55,0,0,1,7.38,5.38l-1.55-.76a9.85,9.85,0,0,1,1,5c-1.34.83-2.94,1.2-4.23,2.12,1.53-.27,3-.61,4.57-.9a10.38,10.38,0,0,1,2.23,4.68c.28-.52.56-1,.82-1.58a15.46,15.46,0,0,1-2.8,8.68q.14-.89.24-1.77A10.89,10.89,0,0,1,54,110c-1.12-1.12-2.11-2.37-3.27-3.46.53,1.51,1.65,2.75,2.17,4.25a10.43,10.43,0,0,1-3.67,3.44l1.66.33a20,20,0,0,1-4.41.71,23.43,23.43,0,0,1-4.63-.69c.57-.09,1.13-.24,1.69-.38a10.66,10.66,0,0,1-3.69-3.5c.76-1.4,1.61-2.75,2.31-4.18a45.22,45.22,0,0,0-3.3,3.48,11.35,11.35,0,0,1-4.5-2.43c.09.57.19,1.14.31,1.71a14.71,14.71,0,0,1-2.86-8.62l.83,1.54a10.17,10.17,0,0,1,2.24-4.7c1.54.3,3,.69,4.6.9-1.36-.82-2.86-1.36-4.29-2.05a10.44,10.44,0,0,1,1-5c-.55.25-1.09.52-1.63.78m5.37,6.38c.8,2.59,1.65,5.15,2.5,7.72h8c.82-2.56,1.66-5.12,2.5-7.68-2.15-1.61-4.35-3.15-6.5-4.75-2.19,1.55-4.35,3.15-6.52,4.72Z"/><path class="cls-2" d="M41.77,52.32h1.16c1.13,5.7,2.13,11.43,3.23,17.13a15,15,0,0,1,.34,2.83A22.09,22.09,0,0,0,31.05,82.82a.82.82,0,0,1-1.32.38c-5.3-3-10.56-6.14-15.86-9.2-.32-.25-.95-.47-.71-1a11.5,11.5,0,0,1,1.28-2.23A42.07,42.07,0,0,1,27.13,58.23a44.78,44.78,0,0,1,14.64-5.91Z"/><path class="cls-3" d="M50.13,57.16a42.35,42.35,0,0,1,29.48,8.41,16.12,16.12,0,0,1,2.35,2c.35.43-.13.85-.37,1.18q-5.49,6.3-11,12.63a12.23,12.23,0,0,1-1.42,1.54c-.53.3-.92-.22-1.31-.5a21.74,21.74,0,0,0-14.94-5c-.91,0-1.81.25-2.72.23a1.84,1.84,0,0,1-.43-1.08c-.78-5.39-1.59-10.77-2.38-16.16a14.27,14.27,0,0,1-.29-2.68C48,57.18,49.14,57.33,50.13,57.16Z"/><path class="cls-1" d="M44.17,84.84a16,16,0,1,1-12.36,9.25,16,16,0,0,1,12.36-9.25m-9.65,7.31c.54-.26,1.08-.53,1.63-.78a10.44,10.44,0,0,0-1,5c1.43.69,2.93,1.23,4.29,2.05-1.55-.21-3.06-.6-4.6-.9a10.08,10.08,0,0,0-2.24,4.7c-.28-.51-.55-1-.83-1.54a14.71,14.71,0,0,0,2.86,8.62c-.12-.57-.22-1.14-.32-1.71A11.58,11.58,0,0,0,38.84,110a43.46,43.46,0,0,1,3.3-3.48c-.7,1.43-1.55,2.78-2.31,4.18a10.66,10.66,0,0,0,3.69,3.5c-.56.14-1.12.29-1.69.38a22.6,22.6,0,0,0,4.63.68,20,20,0,0,0,4.41-.7l-1.66-.33a10.43,10.43,0,0,0,3.67-3.44c-.52-1.5-1.64-2.74-2.17-4.25,1.16,1.09,2.15,2.34,3.27,3.46a10.79,10.79,0,0,0,4.44-2.48c-.07.6-.15,1.19-.24,1.78a15.46,15.46,0,0,0,2.8-8.68c-.26.54-.54,1.06-.82,1.58a10.38,10.38,0,0,0-2.23-4.68c-1.53.29-3,.63-4.57.9,1.29-.92,2.89-1.29,4.23-2.12a9.85,9.85,0,0,0-1-5c.52.24,1,.5,1.55.76a14.55,14.55,0,0,0-7.38-5.38l1.35,1.32a10.37,10.37,0,0,0-5.17.64,40.1,40.1,0,0,1-.63,4.64c-.22-1.54-.37-3.09-.55-4.63a10,10,0,0,0-5.14-.64l1.24-1.31a15.28,15.28,0,0,0-7.38,5.37Z"/><path class="cls-1" d="M39.89,98.53c2.17-1.57,4.33-3.17,6.52-4.72,2.15,1.6,4.35,3.14,6.5,4.75-.84,2.56-1.68,5.12-2.5,7.68h-8c-.85-2.57-1.7-5.13-2.5-7.72Z"/><path class="cls-4" d="M6.13,73.59c.32-.2.66.11,1,.22l16.23,8.71a.81.81,0,0,1,.37,1.3,21.76,21.76,0,0,0-1.05,18.12c.32.5-.16,1-.62,1.1L6.53,109a18.86,18.86,0,0,1-2.42.87,1,1,0,0,1-.55-.54A42.45,42.45,0,0,1,5.61,74.19,1.22,1.22,0,0,1,6.13,73.59Z"/><path class="cls-5" d="M80.51,74.72c.64-.38,1.19.44,1.63.82a42.35,42.35,0,0,1,12.45,32.4l-.37.48c-6.15-.2-12.29-.6-18.44-.85-.51-.06-1.19.05-1.54-.42-.09-.9,0-1.79,0-2.69a21.72,21.72,0,0,0-6.83-14.7c-.52-.37-.25-1.06.16-1.4,4.35-4.53,8.6-9.15,13-13.64Z"/><path class="cls-6" d="M17.09,107.59c.43-.14.93-.47,1.38-.2a5.23,5.23,0,0,1,.51.93,21.75,21.75,0,0,0,11.33,10.93c.82.36,1.71.55,2.5,1a2.17,2.17,0,0,1-.11,1.33c-1.88,6-3.73,12-5.59,17.93a2.25,2.25,0,0,1-1,0,42.3,42.3,0,0,1-25.91-23A5.55,5.55,0,0,1,0,115c5.68-2.5,11.4-4.92,17.09-7.42Z"/><path class="cls-7" d="M68.23,109.89a2.73,2.73,0,0,1,1.55-.14c6,.5,12,.93,18,1.43a.69.69,0,0,1,.66.88,42.34,42.34,0,0,1-16.83,30.62,9.14,9.14,0,0,1-1.08.55c-3.68-4.89-7.24-9.88-10.9-14.8a4.74,4.74,0,0,1-.86-1.47c.09-.35.43-.53.68-.76a21.74,21.74,0,0,0,8.33-13.57c.17-.91.19-1.84.4-2.74Z"/><path class="cls-8" d="M52.4,123.68a.74.74,0,0,1,1.19.21c3.26,4.81,6.47,9.65,9.73,14.46a12.87,12.87,0,0,1,1,1.63c-.26.7-1,1-1.57,1.38a42.31,42.31,0,0,1-18.48,6.28c-2.7,0-5.41-.08-8.1,0a49.78,49.78,0,0,1-7-1.31,2.27,2.27,0,0,1-.94-.59c1.76-6.19,3.42-12.4,5.16-18.59a.76.76,0,0,1,1.1-.58,21.83,21.83,0,0,0,17.89-2.93Z"/></svg>