<svg id="Layer_1" data-name="Layer 1" xmlns="http://www.w3.org/2000/svg" viewBox="0 0 300 200"><defs><style>.cls-1{fill:#fff;}.cls-2{fill:#c80f2e;}.cls-3,.cls-4{fill:#1d4289;}.cls-4{fill-rule:evenodd;}</style></defs><g id="g3063"><g id="g3122"><g id="g3029"><path id="rect2987" class="cls-1" d="M28.06,19.13H66A16.6,16.6,0,0,1,82.68,35.77V164.16A16.6,16.6,0,0,1,66,180.8h-38a16.6,16.6,0,0,1-16.63-16.64V35.77A16.6,16.6,0,0,1,28.06,19.13Z"/><path id="path2989" class="cls-2" d="M56.61,48.77l0,.54c1.15.68,1.74,1.23,2.92,2,3.07,2,6.84,5.42,6.38,17.32.88,2.6,1.27,7.68,2.05,9.3,1.59,3.2,2.68,5.28,3.15,8.28,0,0,.47,4.68,1.07,5,3.18.73,2.27,1,2.71,1.62s2.34.59,2.34,2.31a10.06,10.06,0,0,1,1.49,2.66V35.9A12.8,12.8,0,0,0,66,23.09H53.77c1.95.7,3.07,1.54,3.72,2.84,1.56.13,3.41,3.65.52,8.88,1.28.89.29,2.19-.62,3.67-.29.47-.58,1.33-1.44,1.28-1.14,2.37-2.47,4.61-3.48,4.74a1.69,1.69,0,0,0-.06,1.85,17.45,17.45,0,0,1,4.2,2.42Z"/><path id="path2991" class="cls-2" d="M68,176.67l-.13,0C73.48,173.29,70,166.83,69,163l.21-.65c.28-.52-.31-1.75-.31-1.75-.71-.57-.86-3.75-1.23-5.21-.6-2.37,1.07-6.51,1.07-7.91s-1.07-3.33-3-5.78c-.46-.55-1.87-12.55-3.12-15.6-1.74-4.19-2.27-3.52-4.35-8.54-1.59-3.52-.34-8.7-3.93-20.73l.81-.75s-2.87-10.47-3.81-13.34-2.6-3-2.6-3l.1-1.49c.14-.44,3.49-9.16,3.78-9.45,0-.18,4.84-3.49,4.92-3,.39,2.13,2.27,13,3.07,14.71s3.6,7.06,4.87,10.36a11.42,11.42,0,1,0,13.36,15.29l0,57.88A12.69,12.69,0,0,1,68,176.67Z"/><path id="path2993" class="cls-3" d="M49.76,23.09c-4.17,1.62-4.74,3.41-4.9,9.19-.7.08-2.16-.6-1.66,2.92,0,0,.26,2.34,1.19,1.95-.72,5.11-.15,6.38-3.54,6.75-.73.08-1.61.13-2.7.18l-.34.47c-4.64.44-6.93.14-9.92,4.09A42.39,42.39,0,0,0,24,55.33s-1.38,3.41-1.8,4.82c-1.33,2.78-4.58,8.95-5.55,12.91-.31,1.36-.91,1.77-.05,3.73,1.28,2.81-.83,3.54,6.41,3.33v1.66a11.82,11.82,0,0,0-2.35,2.66,35.75,35.75,0,0,0-1.46,8.36c.13,6.17,5.16,11.33,6.64,17.47l3.36.47C31,114.93,39,126.23,40.85,128.06l.08.08c.42,1.06,2.47,2.39,3.67,3.72a84.06,84.06,0,0,0,8.57,7.81,46.38,46.38,0,0,0,5.26,3.59s1.09,2.27,1.67,4.14c-2.3,1.85,2.16,5.24,3.51,10.84.08.75-1.3,1.51.76,3.36-.13,8.46-2.71,12.89,1.61,15.23H27.89A12.83,12.83,0,0,1,15.36,164V35.9A12.82,12.82,0,0,1,27.89,23.09Z"/></g><g id="g3102"><path id="rect3035" class="cls-4" d="M101.84,23V176.65h16.6c0-39.57.94-79.29-1.49-118.39l19.14,118.39h23.83V23H143.48c-.34,40.73,1.11,80.9,3.87,120.64L127.46,23Z"/><path id="rect3043" class="cls-4" d="M245.78,22.91,229.46,176.67h20.3l2.66-31.09H265.7l2.66,31.09h20.21L272.73,22.91Zm13.28,43.4,5.13,61.23H253.94Z"/><path id="path3059" class="cls-3" d="M172.72,23V176.57h29.7c4.86,0,21.44-4.26,21.44-25.58V120.32c0-3.23,0-13.36-8.82-19.31,5.53,0,8.82-10.73,8.82-20.48V47.64c0-12.82-8-24.66-24-24.62ZM191,42.65h9c4.13,0,5.51,4.56,5.51,8.06V86.47c0,6.12-2,6.58-6.17,6.58H191Zm0,67.17h9c4.13,0,5.51,4.56,5.51,8.06v31.94c0,4.17-2.08,7.33-6.17,7.33l-8.35.1V109.82Z"/></g></g></g></svg>